  0
SECTION
  2
HEADER
  9
$ACADVER
  1
AC1014
  9
$HANDSEED
  5
FFFF
  9
$MEASUREMENT
 70
     1
  0
ENDSEC
  0
SECTION
  2
TABLES
  0
TABLE
  2
VPORT
  5
8
330
0
100
AcDbSymbolTable
 70
     4
  0
VPORT
  5
2E
330
8
100
AcDbSymbolTableRecord
100
AcDbViewportTableRecord
  2
*ACTIVE
 70
     0
 10
0.0
 20
0.0
 11
1.0
 21
1.0
 12
210.0
 22
148.5
 13
0.0
 23
0.0
 14
10.0
 24
10.0
 15
10.0
 25
10.0
 16
0.0
 26
0.0
 36
1.0
 17
0.0
 27
0.0
 37
0.0
 40
341.0
 41
1.24
 42
50.0
 43
0.0
 44
0.0
 50
0.0
 51
0.0
 71
     0
 72
   100
 73
     1
 74
     3
 75
     0
 76
     0
 77
     0
 78
     0
  0
ENDTAB
  0
TABLE
  2
LTYPE
  5
5
330
0
100
AcDbSymbolTable
 70
     1
  0
LTYPE
  5
14
330
5
100
AcDbSymbolTableRecord
100
AcDbLinetypeTableRecord
  2
BYBLOCK
 70
     0
  3

 72
    65
 73
     0
 40
0.0
  0
LTYPE
  5
15
330
5
100
AcDbSymbolTableRecord
100
AcDbLinetypeTableRecord
  2
BYLAYER
 70
     0
  3

 72
    65
 73
     0
 40
0.0
  0
LTYPE
  5
16
330
5
100
AcDbSymbolTableRecord
100
AcDbLinetypeTableRecord
  2
CONTINUOUS
 70
     0
  3
Solid line
 72
    65
 73
     0
 40
0.0
  0
ENDTAB
  0
TABLE
  2
LAYER
  5
2
100
AcDbSymbolTable
 70
5
  0
LAYER
  5
50
100
AcDbSymbolTableRecord
100
AcDbLayerTableRecord
  2
0
 70
0
  6
CONTINUOUS
  0
LAYER
  5
51
100
AcDbSymbolTableRecord
100
AcDbLayerTableRecord
  2
panel
 70
0
  6
CONTINUOUS
  0
LAYER
  5
52
100
AcDbSymbolTableRecord
100
AcDbLayerTableRecord
  2
text
 70
0
  6
CONTINUOUS
  0
LAYER
  5
53
100
AcDbSymbolTableRecord
100
AcDbLayerTableRecord
  2
logo
 70
0
  6
CONTINUOUS
  0
LAYER
  5
54
100
AcDbSymbolTableRecord
100
AcDbLayerTableRecord
  2
design_2
 70
0
  6
CONTINUOUS
  0
ENDTAB
  0
TABLE
  2
STYLE
  5
3
330
0
100
AcDbSymbolTable
 70
     1
  0
STYLE
  5
11
330
3
100
AcDbSymbolTableRecord
100
AcDbTextStyleTableRecord
  2
STANDARD
 70
     0
 40
0.0
 41
1.0
 50
0.0
 71
     0
 42
2.5
  3
txt
  4

  0
ENDTAB
  0
TABLE
  2
VIEW
  5
6
330
0
100
AcDbSymbolTable
 70
     0
  0
ENDTAB
  0
TABLE
  2
UCS
  5
7
330
0
100
AcDbSymbolTable
 70
     0
  0
ENDTAB
  0
TABLE
  2
APPID
  5
9
330
0
100
AcDbSymbolTable
 70
     2
  0
APPID
  5
12
330
9
100
AcDbSymbolTableRecord
100
AcDbRegAppTableRecord
  2
ACAD
 70
     0
  0
ENDTAB
  0
TABLE
  2
DIMSTYLE
  5
A
330
0
100
AcDbSymbolTable
 70
     1
  0
DIMSTYLE
105
27
330
A
100
AcDbSymbolTableRecord
100
AcDbDimStyleTableRecord
  2
ISO-25
 70
     0
  3

  4

  5

  6

  7

 40
1.0
 41
2.5
 42
0.625
 43
3.75
 44
1.25
 45
0.0
 46
0.0
 47
0.0
 48
0.0
140
2.5
141
2.5
142
0.0
143
0.03937007874016
144
1.0
145
0.0
146
1.0
147
0.625
 71
     0
 72
     0
 73
     0
 74
     0
 75
     0
 76
     0
 77
     1
 78
     8
170
     0
171
     3
172
     1
173
     0
174
     0
175
     0
176
     0
177
     0
178
     0
270
     2
271
     2
272
     2
273
     2
274
     3
340
11
275
     0
280
     0
281
     0
282
     0
283
     0
284
     8
285
     0
286
     0
287
     3
288
     0
  0
ENDTAB
  0
TABLE
  2
BLOCK_RECORD
  5
1
330
0
100
AcDbSymbolTable
 70
     1
  0
BLOCK_RECORD
  5
1F
330
1
100
AcDbSymbolTableRecord
100
AcDbBlockTableRecord
  2
*MODEL_SPACE
  0
BLOCK_RECORD
  5
1B
330
1
100
AcDbSymbolTableRecord
100
AcDbBlockTableRecord
  2
*PAPER_SPACE
  0
ENDTAB
  0
ENDSEC
  0
SECTION
  2
BLOCKS
  0
BLOCK
  5
20
330
1F
100
AcDbEntity
  8
0
100
AcDbBlockBegin
  2
*MODEL_SPACE
 70
     0
 10
0.0
 20
0.0
 30
0.0
  3
*MODEL_SPACE
  1

  0
ENDBLK
  5
21
330
1F
100
AcDbEntity
  8
0
100
AcDbBlockEnd
  0
BLOCK
  5
1C
330
1B
100
AcDbEntity
 67
     1
  8
0
100
AcDbBlockBegin
  2
*PAPER_SPACE
  1

  0
ENDBLK
  5
1D
330
1B
100
AcDbEntity
 67
     1
  8
0
100
AcDbBlockEnd
  0
ENDSEC
  0
SECTION
  2
ENTITIES
  0
LINE
  5
100
100
AcDbEntity
  8
panel
 62
7
100
AcDbLine
 10
0.049704
 20
0.049849
 30
0.0
 11
30.429903
 21
0.049849
 31
0.0
  0
LINE
  5
101
100
AcDbEntity
  8
panel
 62
7
100
AcDbLine
 10
0.049704
 20
128.450048
 30
0.0
 11
0.049704
 21
0.049849
 31
0.0
  0
LINE
  5
102
100
AcDbEntity
  8
panel
 62
7
100
AcDbLine
 10
30.429903
 20
0.049849
 30
0.0
 11
30.429903
 21
128.450048
 31
0.0
  0
LINE
  5
103
100
AcDbEntity
  8
panel
 62
7
100
AcDbLine
 10
30.429903
 20
128.450048
 30
0.0
 11
0.049704
 21
128.450048
 31
0.0
  0
SPLINE
  5
104
100
AcDbEntity
  8
panel
 62
7
100
AcDbSpline
 70
8
 71
3
 72
8
 73
4
 74
0
 40
0
 40
0
 40
0
 40
0
 40
1
 40
1
 40
1
 40
1
 10
3.039838
 20
4.596334
 30
0.0
 10
2.187211
 20
4.595469
 30
0.0
 10
1.496477
 20
3.902303
 30
0.0
 10
1.496477
 20
3.047538
 30
0.0
  0
SPLINE
  5
105
100
AcDbEntity
  8
panel
 62
7
100
AcDbSpline
 70
8
 71
3
 72
8
 73
4
 74
0
 40
0
 40
0
 40
0
 40
0
 40
1
 40
1
 40
1
 40
1
 10
1.496477
 20
3.047538
 30
0.0
 10
1.496477
 20
2.192773
 30
0.0
 10
2.187211
 20
1.499606
 30
0.0
 10
3.039838
 20
1.498741
 30
0.0
  0
LINE
  5
106
100
AcDbEntity
  8
panel
 62
7
100
AcDbLine
 10
3.039728
 20
1.498641
 30
0.0
 11
6.030015
 21
1.498641
 31
0.0
  0
SPLINE
  5
107
100
AcDbEntity
  8
panel
 62
7
100
AcDbSpline
 70
8
 71
3
 72
8
 73
4
 74
0
 40
0
 40
0
 40
0
 40
0
 40
1
 40
1
 40
1
 40
1
 10
6.030017
 20
1.498741
 30
0.0
 10
6.882645
 20
1.499606
 30
0.0
 10
7.573379
 20
2.192773
 30
0.0
 10
7.573379
 20
3.047538
 30
0.0
  0
SPLINE
  5
108
100
AcDbEntity
  8
panel
 62
7
100
AcDbSpline
 70
8
 71
3
 72
8
 73
4
 74
0
 40
0
 40
0
 40
0
 40
0
 40
1
 40
1
 40
1
 40
1
 10
7.573379
 20
3.047538
 30
0.0
 10
7.573379
 20
3.902303
 30
0.0
 10
6.882645
 20
4.595469
 30
0.0
 10
6.030017
 20
4.596334
 30
0.0
  0
LINE
  5
109
100
AcDbEntity
  8
panel
 62
7
100
AcDbLine
 10
3.039728
 20
4.596358
 30
0.0
 11
6.030015
 21
4.596358
 31
0.0
  0
SPLINE
  5
10a
100
AcDbEntity
  8
panel
 62
7
100
AcDbSpline
 70
8
 71
3
 72
8
 73
4
 74
0
 40
0
 40
0
 40
0
 40
0
 40
1
 40
1
 40
1
 40
1
 10
9.757770
 20
18.868252
 30
0.0
 10
9.757770
 20
20.028464
 30
0.0
 10
9.140352
 20
21.100544
 30
0.0
 10
8.138091
 20
21.680650
 30
0.0
  0
SPLINE
  5
10b
100
AcDbEntity
  8
panel
 62
7
100
AcDbSpline
 70
8
 71
3
 72
8
 73
4
 74
0
 40
0
 40
0
 40
0
 40
0
 40
1
 40
1
 40
1
 40
1
 10
8.138091
 20
21.680650
 30
0.0
 10
7.135830
 20
22.260756
 30
0.0
 10
5.900994
 20
22.260756
 30
0.0
 10
4.898733
 20
21.680650
 30
0.0
  0
SPLINE
  5
10c
100
AcDbEntity
  8
panel
 62
7
100
AcDbSpline
 70
8
 71
3
 72
8
 73
4
 74
0
 40
0
 40
0
 40
0
 40
0
 40
1
 40
1
 40
1
 40
1
 10
4.898733
 20
21.680650
 30
0.0
 10
3.896472
 20
21.100544
 30
0.0
 10
3.279053
 20
20.028464
 30
0.0
 10
3.279053
 20
18.868252
 30
0.0
  0
SPLINE
  5
10d
100
AcDbEntity
  8
panel
 62
7
100
AcDbSpline
 70
8
 71
3
 72
8
 73
4
 74
0
 40
0
 40
0
 40
0
 40
0
 40
1
 40
1
 40
1
 40
1
 10
3.279053
 20
18.868252
 30
0.0
 10
3.279053
 20
17.708040
 30
0.0
 10
3.896472
 20
16.635959
 30
0.0
 10
4.898733
 20
16.055853
 30
0.0
  0
SPLINE
  5
10e
100
AcDbEntity
  8
panel
 62
7
100
AcDbSpline
 70
8
 71
3
 72
8
 73
4
 74
0
 40
0
 40
0
 40
0
 40
0
 40
1
 40
1
 40
1
 40
1
 10
4.898733
 20
16.055853
 30
0.0
 10
5.900994
 20
15.475747
 30
0.0
 10
7.135830
 20
15.475747
 30
0.0
 10
8.138091
 20
16.055853
 30
0.0
  0
SPLINE
  5
10f
100
AcDbEntity
  8
panel
 62
7
100
AcDbSpline
 70
8
 71
3
 72
8
 73
4
 74
0
 40
0
 40
0
 40
0
 40
0
 40
1
 40
1
 40
1
 40
1
 10
8.138091
 20
16.055853
 30
0.0
 10
9.140352
 20
16.635959
 30
0.0
 10
9.757770
 20
17.708040
 30
0.0
 10
9.757770
 20
18.868252
 30
0.0
  0
LINE
  5
110
100
AcDbEntity
  8
panel
 62
7
100
AcDbLine
 10
9.757770
 20
18.868252
 30
0.0
 11
9.757770
 21
18.868252
 31
0.0
  0
SPLINE
  5
111
100
AcDbEntity
  8
panel
 62
7
100
AcDbSpline
 70
8
 71
3
 72
8
 73
4
 74
0
 40
0
 40
0
 40
0
 40
0
 40
1
 40
1
 40
1
 40
1
 10
9.757770
 20
28.860490
 30
0.0
 10
9.757770
 20
30.020702
 30
0.0
 10
9.140352
 20
31.092782
 30
0.0
 10
8.138091
 20
31.672888
 30
0.0
  0
SPLINE
  5
112
100
AcDbEntity
  8
panel
 62
7
100
AcDbSpline
 70
8
 71
3
 72
8
 73
4
 74
0
 40
0
 40
0
 40
0
 40
0
 40
1
 40
1
 40
1
 40
1
 10
8.138091
 20
31.672888
 30
0.0
 10
7.135830
 20
32.252994
 30
0.0
 10
5.900994
 20
32.252994
 30
0.0
 10
4.898733
 20
31.672888
 30
0.0
  0
SPLINE
  5
113
100
AcDbEntity
  8
panel
 62
7
100
AcDbSpline
 70
8
 71
3
 72
8
 73
4
 74
0
 40
0
 40
0
 40
0
 40
0
 40
1
 40
1
 40
1
 40
1
 10
4.898733
 20
31.672888
 30
0.0
 10
3.896472
 20
31.092782
 30
0.0
 10
3.279053
 20
30.020702
 30
0.0
 10
3.279053
 20
28.860490
 30
0.0
  0
SPLINE
  5
114
100
AcDbEntity
  8
panel
 62
7
100
AcDbSpline
 70
8
 71
3
 72
8
 73
4
 74
0
 40
0
 40
0
 40
0
 40
0
 40
1
 40
1
 40
1
 40
1
 10
3.279053
 20
28.860490
 30
0.0
 10
3.279053
 20
27.700278
 30
0.0
 10
3.896472
 20
26.628197
 30
0.0
 10
4.898733
 20
26.048091
 30
0.0
  0
SPLINE
  5
115
100
AcDbEntity
  8
panel
 62
7
100
AcDbSpline
 70
8
 71
3
 72
8
 73
4
 74
0
 40
0
 40
0
 40
0
 40
0
 40
1
 40
1
 40
1
 40
1
 10
4.898733
 20
26.048091
 30
0.0
 10
5.900994
 20
25.467985
 30
0.0
 10
7.135830
 20
25.467985
 30
0.0
 10
8.138091
 20
26.048091
 30
0.0
  0
SPLINE
  5
116
100
AcDbEntity
  8
panel
 62
7
100
AcDbSpline
 70
8
 71
3
 72
8
 73
4
 74
0
 40
0
 40
0
 40
0
 40
0
 40
1
 40
1
 40
1
 40
1
 10
8.138091
 20
26.048091
 30
0.0
 10
9.140352
 20
26.628197
 30
0.0
 10
9.757770
 20
27.700278
 30
0.0
 10
9.757770
 20
28.860490
 30
0.0
  0
LINE
  5
117
100
AcDbEntity
  8
panel
 62
7
100
AcDbLine
 10
9.757770
 20
28.860490
 30
0.0
 11
9.757770
 21
28.860490
 31
0.0
  0
SPLINE
  5
118
100
AcDbEntity
  8
panel
 62
7
100
AcDbSpline
 70
8
 71
3
 72
8
 73
4
 74
0
 40
0
 40
0
 40
0
 40
0
 40
1
 40
1
 40
1
 40
1
 10
9.757770
 20
38.852730
 30
0.0
 10
9.757770
 20
40.012942
 30
0.0
 10
9.140352
 20
41.085022
 30
0.0
 10
8.138091
 20
41.665129
 30
0.0
  0
SPLINE
  5
119
100
AcDbEntity
  8
panel
 62
7
100
AcDbSpline
 70
8
 71
3
 72
8
 73
4
 74
0
 40
0
 40
0
 40
0
 40
0
 40
1
 40
1
 40
1
 40
1
 10
8.138091
 20
41.665129
 30
0.0
 10
7.135830
 20
42.245235
 30
0.0
 10
5.900994
 20
42.245235
 30
0.0
 10
4.898733
 20
41.665129
 30
0.0
  0
SPLINE
  5
11a
100
AcDbEntity
  8
panel
 62
7
100
AcDbSpline
 70
8
 71
3
 72
8
 73
4
 74
0
 40
0
 40
0
 40
0
 40
0
 40
1
 40
1
 40
1
 40
1
 10
4.898733
 20
41.665129
 30
0.0
 10
3.896472
 20
41.085022
 30
0.0
 10
3.279053
 20
40.012942
 30
0.0
 10
3.279053
 20
38.852730
 30
0.0
  0
SPLINE
  5
11b
100
AcDbEntity
  8
panel
 62
7
100
AcDbSpline
 70
8
 71
3
 72
8
 73
4
 74
0
 40
0
 40
0
 40
0
 40
0
 40
1
 40
1
 40
1
 40
1
 10
3.279053
 20
38.852730
 30
0.0
 10
3.279053
 20
37.692518
 30
0.0
 10
3.896472
 20
36.620438
 30
0.0
 10
4.898733
 20
36.040332
 30
0.0
  0
SPLINE
  5
11c
100
AcDbEntity
  8
panel
 62
7
100
AcDbSpline
 70
8
 71
3
 72
8
 73
4
 74
0
 40
0
 40
0
 40
0
 40
0
 40
1
 40
1
 40
1
 40
1
 10
4.898733
 20
36.040332
 30
0.0
 10
5.900994
 20
35.460226
 30
0.0
 10
7.135830
 20
35.460226
 30
0.0
 10
8.138091
 20
36.040332
 30
0.0
  0
SPLINE
  5
11d
100
AcDbEntity
  8
panel
 62
7
100
AcDbSpline
 70
8
 71
3
 72
8
 73
4
 74
0
 40
0
 40
0
 40
0
 40
0
 40
1
 40
1
 40
1
 40
1
 10
8.138091
 20
36.040332
 30
0.0
 10
9.140352
 20
36.620438
 30
0.0
 10
9.757770
 20
37.692518
 30
0.0
 10
9.757770
 20
38.852730
 30
0.0
  0
LINE
  5
11e
100
AcDbEntity
  8
panel
 62
7
100
AcDbLine
 10
9.757770
 20
38.852730
 30
0.0
 11
9.757770
 21
38.852730
 31
0.0
  0
SPLINE
  5
11f
100
AcDbEntity
  8
panel
 62
7
100
AcDbSpline
 70
8
 71
3
 72
8
 73
4
 74
0
 40
0
 40
0
 40
0
 40
0
 40
1
 40
1
 40
1
 40
1
 10
9.757770
 20
48.844968
 30
0.0
 10
9.757770
 20
50.005180
 30
0.0
 10
9.140352
 20
51.077260
 30
0.0
 10
8.138091
 20
51.657366
 30
0.0
  0
SPLINE
  5
120
100
AcDbEntity
  8
panel
 62
7
100
AcDbSpline
 70
8
 71
3
 72
8
 73
4
 74
0
 40
0
 40
0
 40
0
 40
0
 40
1
 40
1
 40
1
 40
1
 10
8.138091
 20
51.657366
 30
0.0
 10
7.135830
 20
52.237472
 30
0.0
 10
5.900994
 20
52.237472
 30
0.0
 10
4.898733
 20
51.657366
 30
0.0
  0
SPLINE
  5
121
100
AcDbEntity
  8
panel
 62
7
100
AcDbSpline
 70
8
 71
3
 72
8
 73
4
 74
0
 40
0
 40
0
 40
0
 40
0
 40
1
 40
1
 40
1
 40
1
 10
4.898733
 20
51.657366
 30
0.0
 10
3.896472
 20
51.077260
 30
0.0
 10
3.279053
 20
50.005180
 30
0.0
 10
3.279053
 20
48.844968
 30
0.0
  0
SPLINE
  5
122
100
AcDbEntity
  8
panel
 62
7
100
AcDbSpline
 70
8
 71
3
 72
8
 73
4
 74
0
 40
0
 40
0
 40
0
 40
0
 40
1
 40
1
 40
1
 40
1
 10
3.279053
 20
48.844968
 30
0.0
 10
3.279053
 20
47.684756
 30
0.0
 10
3.896472
 20
46.612676
 30
0.0
 10
4.898733
 20
46.032570
 30
0.0
  0
SPLINE
  5
123
100
AcDbEntity
  8
panel
 62
7
100
AcDbSpline
 70
8
 71
3
 72
8
 73
4
 74
0
 40
0
 40
0
 40
0
 40
0
 40
1
 40
1
 40
1
 40
1
 10
4.898733
 20
46.032570
 30
0.0
 10
5.900994
 20
45.452464
 30
0.0
 10
7.135830
 20
45.452464
 30
0.0
 10
8.138091
 20
46.032570
 30
0.0
  0
SPLINE
  5
124
100
AcDbEntity
  8
panel
 62
7
100
AcDbSpline
 70
8
 71
3
 72
8
 73
4
 74
0
 40
0
 40
0
 40
0
 40
0
 40
1
 40
1
 40
1
 40
1
 10
8.138091
 20
46.032570
 30
0.0
 10
9.140352
 20
46.612676
 30
0.0
 10
9.757770
 20
47.684756
 30
0.0
 10
9.757770
 20
48.844968
 30
0.0
  0
LINE
  5
125
100
AcDbEntity
  8
panel
 62
7
100
AcDbLine
 10
9.757770
 20
48.844968
 30
0.0
 11
9.757770
 21
48.844968
 31
0.0
  0
SPLINE
  5
126
100
AcDbEntity
  8
panel
 62
7
100
AcDbSpline
 70
8
 71
3
 72
8
 73
4
 74
0
 40
0
 40
0
 40
0
 40
0
 40
1
 40
1
 40
1
 40
1
 10
18.877811
 20
59.253884
 30
0.0
 10
18.877046
 20
61.267617
 30
0.0
 10
17.248460
 20
62.899663
 30
0.0
 10
15.239763
 20
62.899663
 30
0.0
  0
SPLINE
  5
127
100
AcDbEntity
  8
panel
 62
7
100
AcDbSpline
 70
8
 71
3
 72
8
 73
4
 74
0
 40
0
 40
0
 40
0
 40
0
 40
1
 40
1
 40
1
 40
1
 10
15.239763
 20
62.899663
 30
0.0
 10
13.231065
 20
62.899663
 30
0.0
 10
11.602479
 20
61.267617
 30
0.0
 10
11.601714
 20
59.253884
 30
0.0
  0
SPLINE
  5
128
100
AcDbEntity
  8
panel
 62
7
100
AcDbSpline
 70
8
 71
3
 72
8
 73
4
 74
0
 40
0
 40
0
 40
0
 40
0
 40
1
 40
1
 40
1
 40
1
 10
11.601714
 20
59.253884
 30
0.0
 10
11.602479
 20
57.240152
 30
0.0
 10
13.231065
 20
55.608105
 30
0.0
 10
15.239763
 20
55.608105
 30
0.0
  0
SPLINE
  5
129
100
AcDbEntity
  8
panel
 62
7
100
AcDbSpline
 70
8
 71
3
 72
8
 73
4
 74
0
 40
0
 40
0
 40
0
 40
0
 40
1
 40
1
 40
1
 40
1
 10
15.239763
 20
55.608105
 30
0.0
 10
17.248460
 20
55.608105
 30
0.0
 10
18.877046
 20
57.240152
 30
0.0
 10
18.877811
 20
59.253884
 30
0.0
  0
LINE
  5
12a
100
AcDbEntity
  8
panel
 62
7
100
AcDbLine
 10
18.877811
 20
59.253884
 30
0.0
 11
18.877811
 21
59.253884
 31
0.0
  0
SPLINE
  5
12b
100
AcDbEntity
  8
panel
 62
7
100
AcDbSpline
 70
8
 71
3
 72
8
 73
4
 74
0
 40
0
 40
0
 40
0
 40
0
 40
1
 40
1
 40
1
 40
1
 10
24.449508
 20
4.596334
 30
0.0
 10
23.596880
 20
4.595469
 30
0.0
 10
22.906146
 20
3.902303
 30
0.0
 10
22.906146
 20
3.047538
 30
0.0
  0
SPLINE
  5
12c
100
AcDbEntity
  8
panel
 62
7
100
AcDbSpline
 70
8
 71
3
 72
8
 73
4
 74
0
 40
0
 40
0
 40
0
 40
0
 40
1
 40
1
 40
1
 40
1
 10
22.906146
 20
3.047538
 30
0.0
 10
22.906146
 20
2.192773
 30
0.0
 10
23.596880
 20
1.499606
 30
0.0
 10
24.449508
 20
1.498741
 30
0.0
  0
LINE
  5
12d
100
AcDbEntity
  8
panel
 62
7
100
AcDbLine
 10
24.449592
 20
1.498641
 30
0.0
 11
27.439616
 21
1.498641
 31
0.0
  0
SPLINE
  5
12e
100
AcDbEntity
  8
panel
 62
7
100
AcDbSpline
 70
8
 71
3
 72
8
 73
4
 74
0
 40
0
 40
0
 40
0
 40
0
 40
1
 40
1
 40
1
 40
1
 10
27.439684
 20
1.498741
 30
0.0
 10
28.292312
 20
1.499606
 30
0.0
 10
28.983045
 20
2.192773
 30
0.0
 10
28.983045
 20
3.047538
 30
0.0
  0
SPLINE
  5
12f
100
AcDbEntity
  8
panel
 62
7
100
AcDbSpline
 70
8
 71
3
 72
8
 73
4
 74
0
 40
0
 40
0
 40
0
 40
0
 40
1
 40
1
 40
1
 40
1
 10
28.983045
 20
3.047538
 30
0.0
 10
28.983045
 20
3.902303
 30
0.0
 10
28.292312
 20
4.595469
 30
0.0
 10
27.439684
 20
4.596334
 30
0.0
  0
LINE
  5
130
100
AcDbEntity
  8
panel
 62
7
100
AcDbLine
 10
24.449592
 20
4.596358
 30
0.0
 11
27.439616
 21
4.596358
 31
0.0
  0
SPLINE
  5
131
100
AcDbEntity
  8
panel
 62
7
100
AcDbSpline
 70
8
 71
3
 72
8
 73
4
 74
0
 40
0
 40
0
 40
0
 40
0
 40
1
 40
1
 40
1
 40
1
 10
26.104071
 20
18.868252
 30
0.0
 10
26.104071
 20
20.661784
 30
0.0
 10
24.653761
 20
22.115729
 30
0.0
 10
22.864712
 20
22.115729
 30
0.0
  0
SPLINE
  5
132
100
AcDbEntity
  8
panel
 62
7
100
AcDbSpline
 70
8
 71
3
 72
8
 73
4
 74
0
 40
0
 40
0
 40
0
 40
0
 40
1
 40
1
 40
1
 40
1
 10
22.864712
 20
22.115729
 30
0.0
 10
21.075664
 20
22.115729
 30
0.0
 10
19.625354
 20
20.661784
 30
0.0
 10
19.625354
 20
18.868252
 30
0.0
  0
SPLINE
  5
133
100
AcDbEntity
  8
panel
 62
7
100
AcDbSpline
 70
8
 71
3
 72
8
 73
4
 74
0
 40
0
 40
0
 40
0
 40
0
 40
1
 40
1
 40
1
 40
1
 10
19.625354
 20
18.868252
 30
0.0
 10
19.625354
 20
17.074719
 30
0.0
 10
21.075664
 20
15.620774
 30
0.0
 10
22.864712
 20
15.620774
 30
0.0
  0
SPLINE
  5
134
100
AcDbEntity
  8
panel
 62
7
100
AcDbSpline
 70
8
 71
3
 72
8
 73
4
 74
0
 40
0
 40
0
 40
0
 40
0
 40
1
 40
1
 40
1
 40
1
 10
22.864712
 20
15.620774
 30
0.0
 10
24.653761
 20
15.620774
 30
0.0
 10
26.104071
 20
17.074719
 30
0.0
 10
26.104071
 20
18.868252
 30
0.0
  0
LINE
  5
135
100
AcDbEntity
  8
panel
 62
7
100
AcDbLine
 10
26.104071
 20
18.868252
 30
0.0
 11
26.104071
 21
18.868252
 31
0.0
  0
SPLINE
  5
136
100
AcDbEntity
  8
panel
 62
7
100
AcDbSpline
 70
8
 71
3
 72
8
 73
4
 74
0
 40
0
 40
0
 40
0
 40
0
 40
1
 40
1
 40
1
 40
1
 10
18.877811
 20
75.741081
 30
0.0
 10
18.877046
 20
77.754813
 30
0.0
 10
17.248460
 20
79.386859
 30
0.0
 10
15.239763
 20
79.386859
 30
0.0
  0
SPLINE
  5
137
100
AcDbEntity
  8
panel
 62
7
100
AcDbSpline
 70
8
 71
3
 72
8
 73
4
 74
0
 40
0
 40
0
 40
0
 40
0
 40
1
 40
1
 40
1
 40
1
 10
15.239763
 20
79.386859
 30
0.0
 10
13.231065
 20
79.386859
 30
0.0
 10
11.602479
 20
77.754813
 30
0.0
 10
11.601714
 20
75.741081
 30
0.0
  0
SPLINE
  5
138
100
AcDbEntity
  8
panel
 62
7
100
AcDbSpline
 70
8
 71
3
 72
8
 73
4
 74
0
 40
0
 40
0
 40
0
 40
0
 40
1
 40
1
 40
1
 40
1
 10
11.601714
 20
75.741081
 30
0.0
 10
11.602479
 20
73.727348
 30
0.0
 10
13.231065
 20
72.095302
 30
0.0
 10
15.239763
 20
72.095302
 30
0.0
  0
SPLINE
  5
139
100
AcDbEntity
  8
panel
 62
7
100
AcDbSpline
 70
8
 71
3
 72
8
 73
4
 74
0
 40
0
 40
0
 40
0
 40
0
 40
1
 40
1
 40
1
 40
1
 10
15.239763
 20
72.095302
 30
0.0
 10
17.248460
 20
72.095302
 30
0.0
 10
18.877046
 20
73.727348
 30
0.0
 10
18.877811
 20
75.741081
 30
0.0
  0
LINE
  5
13a
100
AcDbEntity
  8
panel
 62
7
100
AcDbLine
 10
18.877811
 20
75.741081
 30
0.0
 11
18.877811
 21
75.741081
 31
0.0
  0
SPLINE
  5
13b
100
AcDbEntity
  8
panel
 62
7
100
AcDbSpline
 70
8
 71
3
 72
8
 73
4
 74
0
 40
0
 40
0
 40
0
 40
0
 40
1
 40
1
 40
1
 40
1
 10
18.877811
 20
92.228274
 30
0.0
 10
18.877046
 20
94.242007
 30
0.0
 10
17.248460
 20
95.874053
 30
0.0
 10
15.239763
 20
95.874053
 30
0.0
  0
SPLINE
  5
13c
100
AcDbEntity
  8
panel
 62
7
100
AcDbSpline
 70
8
 71
3
 72
8
 73
4
 74
0
 40
0
 40
0
 40
0
 40
0
 40
1
 40
1
 40
1
 40
1
 10
15.239763
 20
95.874053
 30
0.0
 10
13.231065
 20
95.874053
 30
0.0
 10
11.602479
 20
94.242007
 30
0.0
 10
11.601714
 20
92.228274
 30
0.0
  0
SPLINE
  5
13d
100
AcDbEntity
  8
panel
 62
7
100
AcDbSpline
 70
8
 71
3
 72
8
 73
4
 74
0
 40
0
 40
0
 40
0
 40
0
 40
1
 40
1
 40
1
 40
1
 10
11.601714
 20
92.228274
 30
0.0
 10
11.602479
 20
90.214542
 30
0.0
 10
13.231065
 20
88.582495
 30
0.0
 10
15.239763
 20
88.582495
 30
0.0
  0
SPLINE
  5
13e
100
AcDbEntity
  8
panel
 62
7
100
AcDbSpline
 70
8
 71
3
 72
8
 73
4
 74
0
 40
0
 40
0
 40
0
 40
0
 40
1
 40
1
 40
1
 40
1
 10
15.239763
 20
88.582495
 30
0.0
 10
17.248460
 20
88.582495
 30
0.0
 10
18.877046
 20
90.214542
 30
0.0
 10
18.877811
 20
92.228274
 30
0.0
  0
LINE
  5
13f
100
AcDbEntity
  8
panel
 62
7
100
AcDbLine
 10
18.877811
 20
92.228274
 30
0.0
 11
18.877811
 21
92.228274
 31
0.0
  0
SPLINE
  5
140
100
AcDbEntity
  8
panel
 62
7
100
AcDbSpline
 70
8
 71
3
 72
8
 73
4
 74
0
 40
0
 40
0
 40
0
 40
0
 40
1
 40
1
 40
1
 40
1
 10
3.039838
 20
127.001268
 30
0.0
 10
2.487890
 20
127.001268
 30
0.0
 10
1.977868
 20
126.706068
 30
0.0
 10
1.701894
 20
126.226869
 30
0.0
  0
SPLINE
  5
141
100
AcDbEntity
  8
panel
 62
7
100
AcDbSpline
 70
8
 71
3
 72
8
 73
4
 74
0
 40
0
 40
0
 40
0
 40
0
 40
1
 40
1
 40
1
 40
1
 10
1.701894
 20
126.226869
 30
0.0
 10
1.425919
 20
125.747669
 30
0.0
 10
1.425919
 20
125.157271
 30
0.0
 10
1.701894
 20
124.678071
 30
0.0
  0
SPLINE
  5
142
100
AcDbEntity
  8
panel
 62
7
100
AcDbSpline
 70
8
 71
3
 72
8
 73
4
 74
0
 40
0
 40
0
 40
0
 40
0
 40
1
 40
1
 40
1
 40
1
 10
1.701894
 20
124.678071
 30
0.0
 10
1.977868
 20
124.198871
 30
0.0
 10
2.487890
 20
123.903672
 30
0.0
 10
3.039838
 20
123.903672
 30
0.0
  0
LINE
  5
143
100
AcDbEntity
  8
panel
 62
7
100
AcDbLine
 10
3.039728
 20
123.903804
 30
0.0
 11
6.030015
 21
123.903804
 31
0.0
  0
SPLINE
  5
144
100
AcDbEntity
  8
panel
 62
7
100
AcDbSpline
 70
8
 71
3
 72
8
 73
4
 74
0
 40
0
 40
0
 40
0
 40
0
 40
1
 40
1
 40
1
 40
1
 10
6.030017
 20
123.903672
 30
0.0
 10
6.581966
 20
123.903672
 30
0.0
 10
7.091988
 20
124.198871
 30
0.0
 10
7.367962
 20
124.678071
 30
0.0
  0
SPLINE
  5
145
100
AcDbEntity
  8
panel
 62
7
100
AcDbSpline
 70
8
 71
3
 72
8
 73
4
 74
0
 40
0
 40
0
 40
0
 40
0
 40
1
 40
1
 40
1
 40
1
 10
7.367962
 20
124.678071
 30
0.0
 10
7.643936
 20
125.157271
 30
0.0
 10
7.643936
 20
125.747669
 30
0.0
 10
7.367962
 20
126.226869
 30
0.0
  0
SPLINE
  5
146
100
AcDbEntity
  8
panel
 62
7
100
AcDbSpline
 70
8
 71
3
 72
8
 73
4
 74
0
 40
0
 40
0
 40
0
 40
0
 40
1
 40
1
 40
1
 40
1
 10
7.367962
 20
126.226869
 30
0.0
 10
7.091988
 20
126.706068
 30
0.0
 10
6.581966
 20
127.001268
 30
0.0
 10
6.030017
 20
127.001268
 30
0.0
  0
LINE
  5
147
100
AcDbEntity
  8
panel
 62
7
100
AcDbLine
 10
3.039728
 20
127.001257
 30
0.0
 11
6.030015
 21
127.001257
 31
0.0
  0
SPLINE
  5
148
100
AcDbEntity
  8
panel
 62
7
100
AcDbSpline
 70
8
 71
3
 72
8
 73
4
 74
0
 40
0
 40
0
 40
0
 40
0
 40
1
 40
1
 40
1
 40
1
 10
18.877811
 20
108.715468
 30
0.0
 10
18.877046
 20
110.729200
 30
0.0
 10
17.248460
 20
112.361247
 30
0.0
 10
15.239763
 20
112.361247
 30
0.0
  0
SPLINE
  5
149
100
AcDbEntity
  8
panel
 62
7
100
AcDbSpline
 70
8
 71
3
 72
8
 73
4
 74
0
 40
0
 40
0
 40
0
 40
0
 40
1
 40
1
 40
1
 40
1
 10
15.239763
 20
112.361247
 30
0.0
 10
13.231065
 20
112.361247
 30
0.0
 10
11.602479
 20
110.729200
 30
0.0
 10
11.601714
 20
108.715468
 30
0.0
  0
SPLINE
  5
14a
100
AcDbEntity
  8
panel
 62
7
100
AcDbSpline
 70
8
 71
3
 72
8
 73
4
 74
0
 40
0
 40
0
 40
0
 40
0
 40
1
 40
1
 40
1
 40
1
 10
11.601714
 20
108.715468
 30
0.0
 10
11.602479
 20
106.701735
 30
0.0
 10
13.231065
 20
105.069689
 30
0.0
 10
15.239763
 20
105.069689
 30
0.0
  0
SPLINE
  5
14b
100
AcDbEntity
  8
panel
 62
7
100
AcDbSpline
 70
8
 71
3
 72
8
 73
4
 74
0
 40
0
 40
0
 40
0
 40
0
 40
1
 40
1
 40
1
 40
1
 10
15.239763
 20
105.069689
 30
0.0
 10
17.248460
 20
105.069689
 30
0.0
 10
18.877046
 20
106.701735
 30
0.0
 10
18.877811
 20
108.715468
 30
0.0
  0
LINE
  5
14c
100
AcDbEntity
  8
panel
 62
7
100
AcDbLine
 10
18.877811
 20
108.715468
 30
0.0
 11
18.877811
 21
108.715468
 31
0.0
  0
SPLINE
  5
14d
100
AcDbEntity
  8
panel
 62
7
100
AcDbSpline
 70
8
 71
3
 72
8
 73
4
 74
0
 40
0
 40
0
 40
0
 40
0
 40
1
 40
1
 40
1
 40
1
 10
24.449508
 20
127.001268
 30
0.0
 10
23.897559
 20
127.001268
 30
0.0
 10
23.387538
 20
126.706068
 30
0.0
 10
23.111563
 20
126.226869
 30
0.0
  0
SPLINE
  5
14e
100
AcDbEntity
  8
panel
 62
7
100
AcDbSpline
 70
8
 71
3
 72
8
 73
4
 74
0
 40
0
 40
0
 40
0
 40
0
 40
1
 40
1
 40
1
 40
1
 10
23.111563
 20
126.226869
 30
0.0
 10
22.835589
 20
125.747669
 30
0.0
 10
22.835589
 20
125.157271
 30
0.0
 10
23.111563
 20
124.678071
 30
0.0
  0
SPLINE
  5
14f
100
AcDbEntity
  8
panel
 62
7
100
AcDbSpline
 70
8
 71
3
 72
8
 73
4
 74
0
 40
0
 40
0
 40
0
 40
0
 40
1
 40
1
 40
1
 40
1
 10
23.111563
 20
124.678071
 30
0.0
 10
23.387538
 20
124.198871
 30
0.0
 10
23.897559
 20
123.903672
 30
0.0
 10
24.449508
 20
123.903672
 30
0.0
  0
LINE
  5
150
100
AcDbEntity
  8
panel
 62
7
100
AcDbLine
 10
24.449592
 20
123.903804
 30
0.0
 11
27.439616
 21
123.903804
 31
0.0
  0
SPLINE
  5
151
100
AcDbEntity
  8
panel
 62
7
100
AcDbSpline
 70
8
 71
3
 72
8
 73
4
 74
0
 40
0
 40
0
 40
0
 40
0
 40
1
 40
1
 40
1
 40
1
 10
27.439684
 20
123.903672
 30
0.0
 10
27.991633
 20
123.903672
 30
0.0
 10
28.501654
 20
124.198871
 30
0.0
 10
28.777629
 20
124.678071
 30
0.0
  0
SPLINE
  5
152
100
AcDbEntity
  8
panel
 62
7
100
AcDbSpline
 70
8
 71
3
 72
8
 73
4
 74
0
 40
0
 40
0
 40
0
 40
0
 40
1
 40
1
 40
1
 40
1
 10
28.777629
 20
124.678071
 30
0.0
 10
29.053603
 20
125.157271
 30
0.0
 10
29.053603
 20
125.747669
 30
0.0
 10
28.777629
 20
126.226869
 30
0.0
  0
SPLINE
  5
153
100
AcDbEntity
  8
panel
 62
7
100
AcDbSpline
 70
8
 71
3
 72
8
 73
4
 74
0
 40
0
 40
0
 40
0
 40
0
 40
1
 40
1
 40
1
 40
1
 10
28.777629
 20
126.226869
 30
0.0
 10
28.501654
 20
126.706068
 30
0.0
 10
27.991633
 20
127.001268
 30
0.0
 10
27.439684
 20
127.001268
 30
0.0
  0
LINE
  5
154
100
AcDbEntity
  8
panel
 62
7
100
AcDbLine
 10
24.449592
 20
127.001257
 30
0.0
 11
27.439616
 21
127.001257
 31
0.0
  0
LINE
  5
155
100
AcDbEntity
  8
text
 62
7
100
AcDbLine
 10
11.460991
 20
119.449716
 30
0.0
 11
11.460991
 21
117.581400
 31
0.0
  0
LINE
  5
156
100
AcDbEntity
  8
text
 62
7
100
AcDbLine
 10
11.460991
 20
119.449716
 30
0.0
 11
12.172193
 21
117.581400
 31
0.0
  0
LINE
  5
157
100
AcDbEntity
  8
text
 62
7
100
AcDbLine
 10
12.883395
 20
119.449716
 30
0.0
 11
12.172193
 21
117.581400
 31
0.0
  0
LINE
  5
158
100
AcDbEntity
  8
text
 62
7
100
AcDbLine
 10
12.883395
 20
119.449716
 30
0.0
 11
12.883395
 21
117.581400
 31
0.0
  0
LINE
  5
159
100
AcDbEntity
  8
text
 62
7
100
AcDbLine
 10
13.594601
 20
119.449716
 30
0.0
 11
13.594601
 21
117.581400
 31
0.0
  0
LINE
  5
15a
100
AcDbEntity
  8
text
 62
7
100
AcDbLine
 10
14.218311
 20
119.449716
 30
0.0
 11
15.462915
 21
117.581400
 31
0.0
  0
LINE
  5
15b
100
AcDbEntity
  8
text
 62
7
100
AcDbLine
 10
15.462915
 20
119.449716
 30
0.0
 11
14.218311
 21
117.581400
 31
0.0
  0
LINE
  5
15c
100
AcDbEntity
  8
text
 62
7
100
AcDbLine
 10
16.083801
 20
119.449716
 30
0.0
 11
16.083801
 21
117.581400
 31
0.0
  0
LINE
  5
15d
100
AcDbEntity
  8
text
 62
7
100
AcDbLine
 10
16.083801
 20
119.449716
 30
0.0
 11
17.240915
 21
119.449716
 31
0.0
  0
LINE
  5
15e
100
AcDbEntity
  8
text
 62
7
100
AcDbLine
 10
16.083801
 20
118.557892
 30
0.0
 11
16.795003
 21
118.557892
 31
0.0
  0
LINE
  5
15f
100
AcDbEntity
  8
text
 62
7
100
AcDbLine
 10
16.083801
 20
117.581400
 30
0.0
 11
17.240915
 21
117.581400
 31
0.0
  0
LINE
  5
160
100
AcDbEntity
  8
text
 62
7
100
AcDbLine
 10
17.771501
 20
119.449716
 30
0.0
 11
17.771501
 21
117.581400
 31
0.0
  0
LINE
  5
161
100
AcDbEntity
  8
text
 62
7
100
AcDbLine
 10
17.771501
 20
119.449716
 30
0.0
 11
18.573014
 21
119.449716
 31
0.0
  0
LINE
  5
162
100
AcDbEntity
  8
text
 62
7
100
AcDbLine
 10
18.573014
 20
119.449716
 30
0.0
 11
18.838304
 21
119.359405
 31
0.0
  0
LINE
  5
163
100
AcDbEntity
  8
text
 62
7
100
AcDbLine
 10
18.838304
 20
119.359405
 30
0.0
 11
18.928615
 21
119.269094
 31
0.0
  0
LINE
  5
164
100
AcDbEntity
  8
text
 62
7
100
AcDbLine
 10
18.928615
 20
119.269094
 30
0.0
 11
19.018926
 21
119.094115
 31
0.0
  0
LINE
  5
165
100
AcDbEntity
  8
text
 62
7
100
AcDbLine
 10
19.018926
 20
119.094115
 30
0.0
 11
19.018926
 21
118.913493
 31
0.0
  0
LINE
  5
166
100
AcDbEntity
  8
text
 62
7
100
AcDbLine
 10
19.018926
 20
118.913493
 30
0.0
 11
18.928615
 21
118.738514
 31
0.0
  0
LINE
  5
167
100
AcDbEntity
  8
text
 62
7
100
AcDbLine
 10
18.928615
 20
118.738514
 30
0.0
 11
18.838304
 21
118.648203
 31
0.0
  0
LINE
  5
168
100
AcDbEntity
  8
text
 62
7
100
AcDbLine
 10
18.838304
 20
118.648203
 30
0.0
 11
18.573014
 21
118.557892
 31
0.0
  0
LINE
  5
169
100
AcDbEntity
  8
text
 62
7
100
AcDbLine
 10
18.573014
 20
118.557892
 30
0.0
 11
17.771501
 21
118.557892
 31
0.0
  0
LINE
  5
16a
100
AcDbEntity
  8
text
 62
7
100
AcDbLine
 10
18.395213
 20
118.557892
 30
0.0
 11
19.018926
 21
117.581400
 31
0.0
  0
LINE
  5
16b
100
AcDbEntity
  8
text
 62
7
100
AcDbLine
 10
5.539191
 20
56.936996
 30
0.0
 11
5.539191
 21
55.068680
 31
0.0
  0
LINE
  5
16c
100
AcDbEntity
  8
text
 62
7
100
AcDbLine
 10
6.250393
 20
56.936996
 30
0.0
 11
6.250393
 21
55.068680
 31
0.0
  0
LINE
  5
16d
100
AcDbEntity
  8
text
 62
7
100
AcDbLine
 10
6.250393
 20
56.936996
 30
0.0
 11
7.497818
 21
55.068680
 31
0.0
  0
LINE
  5
16e
100
AcDbEntity
  8
text
 62
7
100
AcDbLine
 10
7.497818
 20
56.936996
 30
0.0
 11
7.497818
 21
55.068680
 31
0.0
  0
LINE
  5
16f
100
AcDbEntity
  8
text
 62
7
100
AcDbLine
 10
20.909003
 20
26.853216
 30
0.0
 11
20.731202
 21
26.762905
 31
0.0
  0
LINE
  5
170
100
AcDbEntity
  8
text
 62
7
100
AcDbLine
 10
20.731202
 20
26.762905
 30
0.0
 11
20.553402
 21
26.585104
 31
0.0
  0
LINE
  5
171
100
AcDbEntity
  8
text
 62
7
100
AcDbLine
 10
20.553402
 20
26.585104
 30
0.0
 11
20.463091
 21
26.407304
 31
0.0
  0
LINE
  5
172
100
AcDbEntity
  8
text
 62
7
100
AcDbLine
 10
20.463091
 20
26.407304
 30
0.0
 11
20.375601
 21
26.142014
 31
0.0
  0
LINE
  5
173
100
AcDbEntity
  8
text
 62
7
100
AcDbLine
 10
20.375601
 20
26.142014
 30
0.0
 11
20.375601
 21
25.696102
 31
0.0
  0
LINE
  5
174
100
AcDbEntity
  8
text
 62
7
100
AcDbLine
 10
20.375601
 20
25.696102
 30
0.0
 11
20.463091
 21
25.430812
 31
0.0
  0
LINE
  5
175
100
AcDbEntity
  8
text
 62
7
100
AcDbLine
 10
20.463091
 20
25.430812
 30
0.0
 11
20.553402
 21
25.251601
 31
0.0
  0
LINE
  5
176
100
AcDbEntity
  8
text
 62
7
100
AcDbLine
 10
20.553402
 20
25.251601
 30
0.0
 11
20.731202
 21
25.073800
 31
0.0
  0
LINE
  5
177
100
AcDbEntity
  8
text
 62
7
100
AcDbLine
 10
20.731202
 20
25.073800
 30
0.0
 11
20.909003
 21
24.984900
 31
0.0
  0
LINE
  5
178
100
AcDbEntity
  8
text
 62
7
100
AcDbLine
 10
20.909003
 20
24.984900
 30
0.0
 11
21.264604
 21
24.984900
 31
0.0
  0
LINE
  5
179
100
AcDbEntity
  8
text
 62
7
100
AcDbLine
 10
21.264604
 20
24.984900
 30
0.0
 11
21.442404
 21
25.073800
 31
0.0
  0
LINE
  5
17a
100
AcDbEntity
  8
text
 62
7
100
AcDbLine
 10
21.442404
 20
25.073800
 30
0.0
 11
21.620205
 21
25.251601
 31
0.0
  0
LINE
  5
17b
100
AcDbEntity
  8
text
 62
7
100
AcDbLine
 10
21.620205
 20
25.251601
 30
0.0
 11
21.710516
 21
25.430812
 31
0.0
  0
LINE
  5
17c
100
AcDbEntity
  8
text
 62
7
100
AcDbLine
 10
21.710516
 20
25.430812
 30
0.0
 11
21.798005
 21
25.696102
 31
0.0
  0
LINE
  5
17d
100
AcDbEntity
  8
text
 62
7
100
AcDbLine
 10
21.798005
 20
25.696102
 30
0.0
 11
21.798005
 21
26.142014
 31
0.0
  0
LINE
  5
17e
100
AcDbEntity
  8
text
 62
7
100
AcDbLine
 10
21.798005
 20
26.142014
 30
0.0
 11
21.710516
 21
26.407304
 31
0.0
  0
LINE
  5
17f
100
AcDbEntity
  8
text
 62
7
100
AcDbLine
 10
21.710516
 20
26.407304
 30
0.0
 11
21.620205
 21
26.585104
 31
0.0
  0
LINE
  5
180
100
AcDbEntity
  8
text
 62
7
100
AcDbLine
 10
21.620205
 20
26.585104
 30
0.0
 11
21.442404
 21
26.762905
 31
0.0
  0
LINE
  5
181
100
AcDbEntity
  8
text
 62
7
100
AcDbLine
 10
21.442404
 20
26.762905
 30
0.0
 11
21.264604
 21
26.853216
 31
0.0
  0
LINE
  5
182
100
AcDbEntity
  8
text
 62
7
100
AcDbLine
 10
21.264604
 20
26.853216
 30
0.0
 11
20.909003
 21
26.853216
 31
0.0
  0
LINE
  5
183
100
AcDbEntity
  8
text
 62
7
100
AcDbLine
 10
22.418901
 20
26.853216
 30
0.0
 11
22.418901
 21
25.518301
 31
0.0
  0
LINE
  5
184
100
AcDbEntity
  8
text
 62
7
100
AcDbLine
 10
22.418901
 20
25.518301
 30
0.0
 11
22.509212
 21
25.251601
 31
0.0
  0
LINE
  5
185
100
AcDbEntity
  8
text
 62
7
100
AcDbLine
 10
22.509212
 20
25.251601
 30
0.0
 11
22.687012
 21
25.073800
 31
0.0
  0
LINE
  5
186
100
AcDbEntity
  8
text
 62
7
100
AcDbLine
 10
22.687012
 20
25.073800
 30
0.0
 11
22.955124
 21
24.984900
 31
0.0
  0
LINE
  5
187
100
AcDbEntity
  8
text
 62
7
100
AcDbLine
 10
22.955124
 20
24.984900
 30
0.0
 11
23.130103
 21
24.984900
 31
0.0
  0
LINE
  5
188
100
AcDbEntity
  8
text
 62
7
100
AcDbLine
 10
23.130103
 20
24.984900
 30
0.0
 11
23.398214
 21
25.073800
 31
0.0
  0
LINE
  5
189
100
AcDbEntity
  8
text
 62
7
100
AcDbLine
 10
23.398214
 20
25.073800
 30
0.0
 11
23.576015
 21
25.251601
 31
0.0
  0
LINE
  5
18a
100
AcDbEntity
  8
text
 62
7
100
AcDbLine
 10
23.576015
 20
25.251601
 30
0.0
 11
23.666326
 21
25.518301
 31
0.0
  0
LINE
  5
18b
100
AcDbEntity
  8
text
 62
7
100
AcDbLine
 10
23.666326
 20
25.518301
 30
0.0
 11
23.666326
 21
26.853216
 31
0.0
  0
LINE
  5
18c
100
AcDbEntity
  8
text
 62
7
100
AcDbLine
 10
24.730302
 20
26.853216
 30
0.0
 11
24.730302
 21
24.984900
 31
0.0
  0
LINE
  5
18d
100
AcDbEntity
  8
text
 62
7
100
AcDbLine
 10
24.109411
 20
26.853216
 30
0.0
 11
25.354014
 21
26.853216
 31
0.0
  0
LINE
  5
18e
100
AcDbEntity
  8
text
 62
7
100
AcDbLine
 10
11.506091
 20
125.415596
 30
0.0
 11
11.506091
 21
123.547280
 31
0.0
  0
LINE
  5
18f
100
AcDbEntity
  8
text
 62
7
100
AcDbLine
 10
11.506091
 20
125.415596
 30
0.0
 11
12.307604
 21
125.415596
 31
0.0
  0
LINE
  5
190
100
AcDbEntity
  8
text
 62
7
100
AcDbLine
 10
12.307604
 20
125.415596
 30
0.0
 11
12.572894
 21
125.325285
 31
0.0
  0
LINE
  5
191
100
AcDbEntity
  8
text
 62
7
100
AcDbLine
 10
12.572894
 20
125.325285
 30
0.0
 11
12.663205
 21
125.234974
 31
0.0
  0
LINE
  5
192
100
AcDbEntity
  8
text
 62
7
100
AcDbLine
 10
12.663205
 20
125.234974
 30
0.0
 11
12.753516
 21
125.059995
 31
0.0
  0
LINE
  5
193
100
AcDbEntity
  8
text
 62
7
100
AcDbLine
 10
12.753516
 20
125.059995
 30
0.0
 11
12.753516
 21
124.879373
 31
0.0
  0
LINE
  5
194
100
AcDbEntity
  8
text
 62
7
100
AcDbLine
 10
12.753516
 20
124.879373
 30
0.0
 11
12.663205
 21
124.704394
 31
0.0
  0
LINE
  5
195
100
AcDbEntity
  8
text
 62
7
100
AcDbLine
 10
12.663205
 20
124.704394
 30
0.0
 11
12.572894
 21
124.614083
 31
0.0
  0
LINE
  5
196
100
AcDbEntity
  8
text
 62
7
100
AcDbLine
 10
12.572894
 20
124.614083
 30
0.0
 11
12.307604
 21
124.523772
 31
0.0
  0
LINE
  5
197
100
AcDbEntity
  8
text
 62
7
100
AcDbLine
 10
12.307604
 20
124.523772
 30
0.0
 11
11.506091
 21
124.523772
 31
0.0
  0
LINE
  5
198
100
AcDbEntity
  8
text
 62
7
100
AcDbLine
 10
12.129803
 20
124.523772
 30
0.0
 11
12.753516
 21
123.547280
 31
0.0
  0
LINE
  5
199
100
AcDbEntity
  8
text
 62
7
100
AcDbLine
 10
13.730012
 20
124.791883
 30
0.0
 11
13.555033
 21
124.704394
 31
0.0
  0
LINE
  5
19a
100
AcDbEntity
  8
text
 62
7
100
AcDbLine
 10
13.555033
 20
124.704394
 30
0.0
 11
13.374411
 21
124.523772
 31
0.0
  0
LINE
  5
19b
100
AcDbEntity
  8
text
 62
7
100
AcDbLine
 10
13.374411
 20
124.523772
 30
0.0
 11
13.286921
 21
124.258482
 31
0.0
  0
LINE
  5
19c
100
AcDbEntity
  8
text
 62
7
100
AcDbLine
 10
13.286921
 20
124.258482
 30
0.0
 11
13.286921
 21
124.080681
 31
0.0
  0
LINE
  5
19d
100
AcDbEntity
  8
text
 62
7
100
AcDbLine
 10
13.286921
 20
124.080681
 30
0.0
 11
13.374411
 21
123.813981
 31
0.0
  0
LINE
  5
19e
100
AcDbEntity
  8
text
 62
7
100
AcDbLine
 10
13.374411
 20
123.813981
 30
0.0
 11
13.555033
 21
123.636180
 31
0.0
  0
LINE
  5
19f
100
AcDbEntity
  8
text
 62
7
100
AcDbLine
 10
13.555033
 20
123.636180
 30
0.0
 11
13.730012
 21
123.547280
 31
0.0
  0
LINE
  5
1a0
100
AcDbEntity
  8
text
 62
7
100
AcDbLine
 10
13.730012
 20
123.547280
 30
0.0
 11
13.998123
 21
123.547280
 31
0.0
  0
LINE
  5
1a1
100
AcDbEntity
  8
text
 62
7
100
AcDbLine
 10
13.998123
 20
123.547280
 30
0.0
 11
14.175924
 21
123.636180
 31
0.0
  0
LINE
  5
1a2
100
AcDbEntity
  8
text
 62
7
100
AcDbLine
 10
14.175924
 20
123.636180
 30
0.0
 11
14.353724
 21
123.813981
 31
0.0
  0
LINE
  5
1a3
100
AcDbEntity
  8
text
 62
7
100
AcDbLine
 10
14.353724
 20
123.813981
 30
0.0
 11
14.441214
 21
124.080681
 31
0.0
  0
LINE
  5
1a4
100
AcDbEntity
  8
text
 62
7
100
AcDbLine
 10
14.441214
 20
124.080681
 30
0.0
 11
14.441214
 21
124.258482
 31
0.0
  0
LINE
  5
1a5
100
AcDbEntity
  8
text
 62
7
100
AcDbLine
 10
14.441214
 20
124.258482
 30
0.0
 11
14.353724
 21
124.523772
 31
0.0
  0
LINE
  5
1a6
100
AcDbEntity
  8
text
 62
7
100
AcDbLine
 10
14.353724
 20
124.523772
 30
0.0
 11
14.175924
 21
124.704394
 31
0.0
  0
LINE
  5
1a7
100
AcDbEntity
  8
text
 62
7
100
AcDbLine
 10
14.175924
 20
124.704394
 30
0.0
 11
13.998123
 21
124.791883
 31
0.0
  0
LINE
  5
1a8
100
AcDbEntity
  8
text
 62
7
100
AcDbLine
 10
13.998123
 20
124.791883
 30
0.0
 11
13.730012
 21
124.791883
 31
0.0
  0
LINE
  5
1a9
100
AcDbEntity
  8
text
 62
7
100
AcDbLine
 10
15.062101
 20
125.415596
 30
0.0
 11
15.062101
 21
123.547280
 31
0.0
  0
LINE
  5
1aa
100
AcDbEntity
  8
text
 62
7
100
AcDbLine
 10
15.062101
 20
124.523772
 30
0.0
 11
15.242723
 21
124.704394
 31
0.0
  0
LINE
  5
1ab
100
AcDbEntity
  8
text
 62
7
100
AcDbLine
 10
15.242723
 20
124.704394
 30
0.0
 11
15.417702
 21
124.791883
 31
0.0
  0
LINE
  5
1ac
100
AcDbEntity
  8
text
 62
7
100
AcDbLine
 10
15.417702
 20
124.791883
 30
0.0
 11
15.685813
 21
124.791883
 31
0.0
  0
LINE
  5
1ad
100
AcDbEntity
  8
text
 62
7
100
AcDbLine
 10
15.685813
 20
124.791883
 30
0.0
 11
15.863614
 21
124.704394
 31
0.0
  0
LINE
  5
1ae
100
AcDbEntity
  8
text
 62
7
100
AcDbLine
 10
15.863614
 20
124.704394
 30
0.0
 11
16.041414
 21
124.523772
 31
0.0
  0
LINE
  5
1af
100
AcDbEntity
  8
text
 62
7
100
AcDbLine
 10
16.041414
 20
124.523772
 30
0.0
 11
16.128904
 21
124.258482
 31
0.0
  0
LINE
  5
1b0
100
AcDbEntity
  8
text
 62
7
100
AcDbLine
 10
16.128904
 20
124.258482
 30
0.0
 11
16.128904
 21
124.080681
 31
0.0
  0
LINE
  5
1b1
100
AcDbEntity
  8
text
 62
7
100
AcDbLine
 10
16.128904
 20
124.080681
 30
0.0
 11
16.041414
 21
123.813981
 31
0.0
  0
LINE
  5
1b2
100
AcDbEntity
  8
text
 62
7
100
AcDbLine
 10
16.041414
 20
123.813981
 30
0.0
 11
15.863614
 21
123.636180
 31
0.0
  0
LINE
  5
1b3
100
AcDbEntity
  8
text
 62
7
100
AcDbLine
 10
15.863614
 20
123.636180
 30
0.0
 11
15.685813
 21
123.547280
 31
0.0
  0
LINE
  5
1b4
100
AcDbEntity
  8
text
 62
7
100
AcDbLine
 10
15.685813
 20
123.547280
 30
0.0
 11
15.417702
 21
123.547280
 31
0.0
  0
LINE
  5
1b5
100
AcDbEntity
  8
text
 62
7
100
AcDbLine
 10
15.417702
 20
123.547280
 30
0.0
 11
15.242723
 21
123.636180
 31
0.0
  0
LINE
  5
1b6
100
AcDbEntity
  8
text
 62
7
100
AcDbLine
 10
15.242723
 20
123.636180
 30
0.0
 11
15.062101
 21
123.813981
 31
0.0
  0
LINE
  5
1b7
100
AcDbEntity
  8
text
 62
7
100
AcDbLine
 10
17.105392
 20
124.791883
 30
0.0
 11
16.930413
 21
124.704394
 31
0.0
  0
LINE
  5
1b8
100
AcDbEntity
  8
text
 62
7
100
AcDbLine
 10
16.930413
 20
124.704394
 30
0.0
 11
16.749791
 21
124.523772
 31
0.0
  0
LINE
  5
1b9
100
AcDbEntity
  8
text
 62
7
100
AcDbLine
 10
16.749791
 20
124.523772
 30
0.0
 11
16.662301
 21
124.258482
 31
0.0
  0
LINE
  5
1ba
100
AcDbEntity
  8
text
 62
7
100
AcDbLine
 10
16.662301
 20
124.258482
 30
0.0
 11
16.662301
 21
124.080681
 31
0.0
  0
LINE
  5
1bb
100
AcDbEntity
  8
text
 62
7
100
AcDbLine
 10
16.662301
 20
124.080681
 30
0.0
 11
16.749791
 21
123.813981
 31
0.0
  0
LINE
  5
1bc
100
AcDbEntity
  8
text
 62
7
100
AcDbLine
 10
16.749791
 20
123.813981
 30
0.0
 11
16.930413
 21
123.636180
 31
0.0
  0
LINE
  5
1bd
100
AcDbEntity
  8
text
 62
7
100
AcDbLine
 10
16.930413
 20
123.636180
 30
0.0
 11
17.105392
 21
123.547280
 31
0.0
  0
LINE
  5
1be
100
AcDbEntity
  8
text
 62
7
100
AcDbLine
 10
17.105392
 20
123.547280
 30
0.0
 11
17.373503
 21
123.547280
 31
0.0
  0
LINE
  5
1bf
100
AcDbEntity
  8
text
 62
7
100
AcDbLine
 10
17.373503
 20
123.547280
 30
0.0
 11
17.551304
 21
123.636180
 31
0.0
  0
LINE
  5
1c0
100
AcDbEntity
  8
text
 62
7
100
AcDbLine
 10
17.551304
 20
123.636180
 30
0.0
 11
17.729104
 21
123.813981
 31
0.0
  0
LINE
  5
1c1
100
AcDbEntity
  8
text
 62
7
100
AcDbLine
 10
17.729104
 20
123.813981
 30
0.0
 11
17.816594
 21
124.080681
 31
0.0
  0
LINE
  5
1c2
100
AcDbEntity
  8
text
 62
7
100
AcDbLine
 10
17.816594
 20
124.080681
 30
0.0
 11
17.816594
 21
124.258482
 31
0.0
  0
LINE
  5
1c3
100
AcDbEntity
  8
text
 62
7
100
AcDbLine
 10
17.816594
 20
124.258482
 30
0.0
 11
17.729104
 21
124.523772
 31
0.0
  0
LINE
  5
1c4
100
AcDbEntity
  8
text
 62
7
100
AcDbLine
 10
17.729104
 20
124.523772
 30
0.0
 11
17.551304
 21
124.704394
 31
0.0
  0
LINE
  5
1c5
100
AcDbEntity
  8
text
 62
7
100
AcDbLine
 10
17.551304
 20
124.704394
 30
0.0
 11
17.373503
 21
124.791883
 31
0.0
  0
LINE
  5
1c6
100
AcDbEntity
  8
text
 62
7
100
AcDbLine
 10
17.373503
 20
124.791883
 30
0.0
 11
17.105392
 21
124.791883
 31
0.0
  0
LINE
  5
1c7
100
AcDbEntity
  8
text
 62
7
100
AcDbLine
 10
18.527802
 20
125.415596
 30
0.0
 11
18.527802
 21
123.902881
 31
0.0
  0
LINE
  5
1c8
100
AcDbEntity
  8
text
 62
7
100
AcDbLine
 10
18.527802
 20
123.902881
 30
0.0
 11
18.618113
 21
123.636180
 31
0.0
  0
LINE
  5
1c9
100
AcDbEntity
  8
text
 62
7
100
AcDbLine
 10
18.618113
 20
123.636180
 30
0.0
 11
18.793092
 21
123.547280
 31
0.0
  0
LINE
  5
1ca
100
AcDbEntity
  8
text
 62
7
100
AcDbLine
 10
18.793092
 20
123.547280
 30
0.0
 11
18.973714
 21
123.547280
 31
0.0
  0
LINE
  5
1cb
100
AcDbEntity
  8
text
 62
7
100
AcDbLine
 10
18.262512
 20
124.791883
 30
0.0
 11
18.883403
 21
124.791883
 31
0.0
  0
LINE
  5
1cc
100
AcDbEntity
  8
text
 62
7
100
AcDbLine
 10
10.617121
 20
122.886716
 30
0.0
 11
10.617121
 21
121.018400
 31
0.0
  0
LINE
  5
1cd
100
AcDbEntity
  8
text
 62
7
100
AcDbLine
 10
10.617121
 20
122.886716
 30
0.0
 11
11.240833
 21
122.886716
 31
0.0
  0
LINE
  5
1ce
100
AcDbEntity
  8
text
 62
7
100
AcDbLine
 10
11.240833
 20
122.886716
 30
0.0
 11
11.508945
 21
122.796405
 31
0.0
  0
LINE
  5
1cf
100
AcDbEntity
  8
text
 62
7
100
AcDbLine
 10
11.508945
 20
122.796405
 30
0.0
 11
11.683924
 21
122.618604
 31
0.0
  0
LINE
  5
1d0
100
AcDbEntity
  8
text
 62
7
100
AcDbLine
 10
11.683924
 20
122.618604
 30
0.0
 11
11.774235
 21
122.440804
 31
0.0
  0
LINE
  5
1d1
100
AcDbEntity
  8
text
 62
7
100
AcDbLine
 10
11.774235
 20
122.440804
 30
0.0
 11
11.864546
 21
122.175514
 31
0.0
  0
LINE
  5
1d2
100
AcDbEntity
  8
text
 62
7
100
AcDbLine
 10
11.864546
 20
122.175514
 30
0.0
 11
11.864546
 21
121.729602
 31
0.0
  0
LINE
  5
1d3
100
AcDbEntity
  8
text
 62
7
100
AcDbLine
 10
11.864546
 20
121.729602
 30
0.0
 11
11.774235
 21
121.464312
 31
0.0
  0
LINE
  5
1d4
100
AcDbEntity
  8
text
 62
7
100
AcDbLine
 10
11.774235
 20
121.464312
 30
0.0
 11
11.683924
 21
121.285101
 31
0.0
  0
LINE
  5
1d5
100
AcDbEntity
  8
text
 62
7
100
AcDbLine
 10
11.683924
 20
121.285101
 30
0.0
 11
11.508945
 21
121.107300
 31
0.0
  0
LINE
  5
1d6
100
AcDbEntity
  8
text
 62
7
100
AcDbLine
 10
11.508945
 20
121.107300
 30
0.0
 11
11.240833
 21
121.018400
 31
0.0
  0
LINE
  5
1d7
100
AcDbEntity
  8
text
 62
7
100
AcDbLine
 10
11.240833
 20
121.018400
 30
0.0
 11
10.617121
 21
121.018400
 31
0.0
  0
LINE
  5
1d8
100
AcDbEntity
  8
text
 62
7
100
AcDbLine
 10
12.397951
 20
122.886716
 30
0.0
 11
12.485441
 21
122.796405
 31
0.0
  0
LINE
  5
1d9
100
AcDbEntity
  8
text
 62
7
100
AcDbLine
 10
12.485441
 20
122.796405
 30
0.0
 11
12.575752
 21
122.886716
 31
0.0
  0
LINE
  5
1da
100
AcDbEntity
  8
text
 62
7
100
AcDbLine
 10
12.575752
 20
122.886716
 30
0.0
 11
12.485441
 21
122.974205
 31
0.0
  0
LINE
  5
1db
100
AcDbEntity
  8
text
 62
7
100
AcDbLine
 10
12.485441
 20
122.974205
 30
0.0
 11
12.397951
 21
122.886716
 31
0.0
  0
LINE
  5
1dc
100
AcDbEntity
  8
text
 62
7
100
AcDbLine
 10
12.485441
 20
122.263003
 30
0.0
 11
12.485441
 21
121.018400
 31
0.0
  0
LINE
  5
1dd
100
AcDbEntity
  8
text
 62
7
100
AcDbLine
 10
14.175954
 20
122.263003
 30
0.0
 11
14.175954
 21
121.018400
 31
0.0
  0
LINE
  5
1de
100
AcDbEntity
  8
text
 62
7
100
AcDbLine
 10
14.175954
 20
121.994892
 30
0.0
 11
13.998154
 21
122.175514
 31
0.0
  0
LINE
  5
1df
100
AcDbEntity
  8
text
 62
7
100
AcDbLine
 10
13.998154
 20
122.175514
 30
0.0
 11
13.820353
 21
122.263003
 31
0.0
  0
LINE
  5
1e0
100
AcDbEntity
  8
text
 62
7
100
AcDbLine
 10
13.820353
 20
122.263003
 30
0.0
 11
13.552242
 21
122.263003
 31
0.0
  0
LINE
  5
1e1
100
AcDbEntity
  8
text
 62
7
100
AcDbLine
 10
13.552242
 20
122.263003
 30
0.0
 11
13.377263
 21
122.175514
 31
0.0
  0
LINE
  5
1e2
100
AcDbEntity
  8
text
 62
7
100
AcDbLine
 10
13.377263
 20
122.175514
 30
0.0
 11
13.196641
 21
121.994892
 31
0.0
  0
LINE
  5
1e3
100
AcDbEntity
  8
text
 62
7
100
AcDbLine
 10
13.196641
 20
121.994892
 30
0.0
 11
13.109151
 21
121.729602
 31
0.0
  0
LINE
  5
1e4
100
AcDbEntity
  8
text
 62
7
100
AcDbLine
 10
13.109151
 20
121.729602
 30
0.0
 11
13.109151
 21
121.551801
 31
0.0
  0
LINE
  5
1e5
100
AcDbEntity
  8
text
 62
7
100
AcDbLine
 10
13.109151
 20
121.551801
 30
0.0
 11
13.196641
 21
121.285101
 31
0.0
  0
LINE
  5
1e6
100
AcDbEntity
  8
text
 62
7
100
AcDbLine
 10
13.196641
 20
121.285101
 30
0.0
 11
13.377263
 21
121.107300
 31
0.0
  0
LINE
  5
1e7
100
AcDbEntity
  8
text
 62
7
100
AcDbLine
 10
13.377263
 20
121.107300
 30
0.0
 11
13.552242
 21
121.018400
 31
0.0
  0
LINE
  5
1e8
100
AcDbEntity
  8
text
 62
7
100
AcDbLine
 10
13.552242
 20
121.018400
 30
0.0
 11
13.820353
 21
121.018400
 31
0.0
  0
LINE
  5
1e9
100
AcDbEntity
  8
text
 62
7
100
AcDbLine
 10
13.820353
 20
121.018400
 30
0.0
 11
13.998154
 21
121.107300
 31
0.0
  0
LINE
  5
1ea
100
AcDbEntity
  8
text
 62
7
100
AcDbLine
 10
13.998154
 20
121.107300
 30
0.0
 11
14.175954
 21
121.285101
 31
0.0
  0
LINE
  5
1eb
100
AcDbEntity
  8
text
 62
7
100
AcDbLine
 10
14.884331
 20
122.886716
 30
0.0
 11
14.884331
 21
121.018400
 31
0.0
  0
LINE
  5
1ec
100
AcDbEntity
  8
text
 62
7
100
AcDbLine
 10
15.951132
 20
122.263003
 30
0.0
 11
15.776153
 21
122.175514
 31
0.0
  0
LINE
  5
1ed
100
AcDbEntity
  8
text
 62
7
100
AcDbLine
 10
15.776153
 20
122.175514
 30
0.0
 11
15.595531
 21
121.994892
 31
0.0
  0
LINE
  5
1ee
100
AcDbEntity
  8
text
 62
7
100
AcDbLine
 10
15.595531
 20
121.994892
 30
0.0
 11
15.508041
 21
121.729602
 31
0.0
  0
LINE
  5
1ef
100
AcDbEntity
  8
text
 62
7
100
AcDbLine
 10
15.508041
 20
121.729602
 30
0.0
 11
15.508041
 21
121.551801
 31
0.0
  0
LINE
  5
1f0
100
AcDbEntity
  8
text
 62
7
100
AcDbLine
 10
15.508041
 20
121.551801
 30
0.0
 11
15.595531
 21
121.285101
 31
0.0
  0
LINE
  5
1f1
100
AcDbEntity
  8
text
 62
7
100
AcDbLine
 10
15.595531
 20
121.285101
 30
0.0
 11
15.776153
 21
121.107300
 31
0.0
  0
LINE
  5
1f2
100
AcDbEntity
  8
text
 62
7
100
AcDbLine
 10
15.776153
 20
121.107300
 30
0.0
 11
15.951132
 21
121.018400
 31
0.0
  0
LINE
  5
1f3
100
AcDbEntity
  8
text
 62
7
100
AcDbLine
 10
15.951132
 20
121.018400
 30
0.0
 11
16.219243
 21
121.018400
 31
0.0
  0
LINE
  5
1f4
100
AcDbEntity
  8
text
 62
7
100
AcDbLine
 10
16.219243
 20
121.018400
 30
0.0
 11
16.397044
 21
121.107300
 31
0.0
  0
LINE
  5
1f5
100
AcDbEntity
  8
text
 62
7
100
AcDbLine
 10
16.397044
 20
121.107300
 30
0.0
 11
16.574844
 21
121.285101
 31
0.0
  0
LINE
  5
1f6
100
AcDbEntity
  8
text
 62
7
100
AcDbLine
 10
16.574844
 20
121.285101
 30
0.0
 11
16.662334
 21
121.551801
 31
0.0
  0
LINE
  5
1f7
100
AcDbEntity
  8
text
 62
7
100
AcDbLine
 10
16.662334
 20
121.551801
 30
0.0
 11
16.662334
 21
121.729602
 31
0.0
  0
LINE
  5
1f8
100
AcDbEntity
  8
text
 62
7
100
AcDbLine
 10
16.662334
 20
121.729602
 30
0.0
 11
16.574844
 21
121.994892
 31
0.0
  0
LINE
  5
1f9
100
AcDbEntity
  8
text
 62
7
100
AcDbLine
 10
16.574844
 20
121.994892
 30
0.0
 11
16.397044
 21
122.175514
 31
0.0
  0
LINE
  5
1fa
100
AcDbEntity
  8
text
 62
7
100
AcDbLine
 10
16.397044
 20
122.175514
 30
0.0
 11
16.219243
 21
122.263003
 31
0.0
  0
LINE
  5
1fb
100
AcDbEntity
  8
text
 62
7
100
AcDbLine
 10
16.219243
 20
122.263003
 30
0.0
 11
15.951132
 21
122.263003
 31
0.0
  0
LINE
  5
1fc
100
AcDbEntity
  8
text
 62
7
100
AcDbLine
 10
18.262544
 20
122.263003
 30
0.0
 11
18.262544
 21
120.840600
 31
0.0
  0
LINE
  5
1fd
100
AcDbEntity
  8
text
 62
7
100
AcDbLine
 10
18.262544
 20
120.840600
 30
0.0
 11
18.175055
 21
120.572488
 31
0.0
  0
LINE
  5
1fe
100
AcDbEntity
  8
text
 62
7
100
AcDbLine
 10
18.175055
 20
120.572488
 30
0.0
 11
18.084744
 21
120.484999
 31
0.0
  0
LINE
  5
1ff
100
AcDbEntity
  8
text
 62
7
100
AcDbLine
 10
18.084744
 20
120.484999
 30
0.0
 11
17.906943
 21
120.397509
 31
0.0
  0
LINE
  5
200
100
AcDbEntity
  8
text
 62
7
100
AcDbLine
 10
17.906943
 20
120.397509
 30
0.0
 11
17.638832
 21
120.397509
 31
0.0
  0
LINE
  5
201
100
AcDbEntity
  8
text
 62
7
100
AcDbLine
 10
17.638832
 20
120.397509
 30
0.0
 11
17.463853
 21
120.484999
 31
0.0
  0
LINE
  5
202
100
AcDbEntity
  8
text
 62
7
100
AcDbLine
 10
18.262544
 20
121.994892
 30
0.0
 11
18.084744
 21
122.175514
 31
0.0
  0
LINE
  5
203
100
AcDbEntity
  8
text
 62
7
100
AcDbLine
 10
18.084744
 20
122.175514
 30
0.0
 11
17.906943
 21
122.263003
 31
0.0
  0
LINE
  5
204
100
AcDbEntity
  8
text
 62
7
100
AcDbLine
 10
17.906943
 20
122.263003
 30
0.0
 11
17.638832
 21
122.263003
 31
0.0
  0
LINE
  5
205
100
AcDbEntity
  8
text
 62
7
100
AcDbLine
 10
17.638832
 20
122.263003
 30
0.0
 11
17.463853
 21
122.175514
 31
0.0
  0
LINE
  5
206
100
AcDbEntity
  8
text
 62
7
100
AcDbLine
 10
17.463853
 20
122.175514
 30
0.0
 11
17.283231
 21
121.994892
 31
0.0
  0
LINE
  5
207
100
AcDbEntity
  8
text
 62
7
100
AcDbLine
 10
17.283231
 20
121.994892
 30
0.0
 11
17.195741
 21
121.729602
 31
0.0
  0
LINE
  5
208
100
AcDbEntity
  8
text
 62
7
100
AcDbLine
 10
17.195741
 20
121.729602
 30
0.0
 11
17.195741
 21
121.551801
 31
0.0
  0
LINE
  5
209
100
AcDbEntity
  8
text
 62
7
100
AcDbLine
 10
17.195741
 20
121.551801
 30
0.0
 11
17.283231
 21
121.285101
 31
0.0
  0
LINE
  5
20a
100
AcDbEntity
  8
text
 62
7
100
AcDbLine
 10
17.283231
 20
121.285101
 30
0.0
 11
17.463853
 21
121.107300
 31
0.0
  0
LINE
  5
20b
100
AcDbEntity
  8
text
 62
7
100
AcDbLine
 10
17.463853
 20
121.107300
 30
0.0
 11
17.638832
 21
121.018400
 31
0.0
  0
LINE
  5
20c
100
AcDbEntity
  8
text
 62
7
100
AcDbLine
 10
17.638832
 20
121.018400
 30
0.0
 11
17.906943
 21
121.018400
 31
0.0
  0
LINE
  5
20d
100
AcDbEntity
  8
text
 62
7
100
AcDbLine
 10
17.906943
 20
121.018400
 30
0.0
 11
18.084744
 21
121.107300
 31
0.0
  0
LINE
  5
20e
100
AcDbEntity
  8
text
 62
7
100
AcDbLine
 10
18.084744
 20
121.107300
 30
0.0
 11
18.262544
 21
121.285101
 31
0.0
  0
LINE
  5
20f
100
AcDbEntity
  8
text
 62
7
100
AcDbLine
 10
19.862745
 20
121.994892
 30
0.0
 11
19.772434
 21
122.175514
 31
0.0
  0
LINE
  5
210
100
AcDbEntity
  8
text
 62
7
100
AcDbLine
 10
19.772434
 20
122.175514
 30
0.0
 11
19.507144
 21
122.263003
 31
0.0
  0
LINE
  5
211
100
AcDbEntity
  8
text
 62
7
100
AcDbLine
 10
19.507144
 20
122.263003
 30
0.0
 11
19.239032
 21
122.263003
 31
0.0
  0
LINE
  5
212
100
AcDbEntity
  8
text
 62
7
100
AcDbLine
 10
19.239032
 20
122.263003
 30
0.0
 11
18.970921
 21
122.175514
 31
0.0
  0
LINE
  5
213
100
AcDbEntity
  8
text
 62
7
100
AcDbLine
 10
18.970921
 20
122.175514
 30
0.0
 11
18.883431
 21
121.994892
 31
0.0
  0
LINE
  5
214
100
AcDbEntity
  8
text
 62
7
100
AcDbLine
 10
18.883431
 20
121.994892
 30
0.0
 11
18.970921
 21
121.819913
 31
0.0
  0
LINE
  5
215
100
AcDbEntity
  8
text
 62
7
100
AcDbLine
 10
18.970921
 20
121.819913
 30
0.0
 11
19.151543
 21
121.729602
 31
0.0
  0
LINE
  5
216
100
AcDbEntity
  8
text
 62
7
100
AcDbLine
 10
19.151543
 20
121.729602
 30
0.0
 11
19.594633
 21
121.639291
 31
0.0
  0
LINE
  5
217
100
AcDbEntity
  8
text
 62
7
100
AcDbLine
 10
19.594633
 20
121.639291
 30
0.0
 11
19.772434
 21
121.551801
 31
0.0
  0
LINE
  5
218
100
AcDbEntity
  8
text
 62
7
100
AcDbLine
 10
19.772434
 20
121.551801
 30
0.0
 11
19.862745
 21
121.374001
 31
0.0
  0
LINE
  5
219
100
AcDbEntity
  8
text
 62
7
100
AcDbLine
 10
19.862745
 20
121.374001
 30
0.0
 11
19.862745
 21
121.285101
 31
0.0
  0
LINE
  5
21a
100
AcDbEntity
  8
text
 62
7
100
AcDbLine
 10
19.862745
 20
121.285101
 30
0.0
 11
19.772434
 21
121.107300
 31
0.0
  0
LINE
  5
21b
100
AcDbEntity
  8
text
 62
7
100
AcDbLine
 10
19.772434
 20
121.107300
 30
0.0
 11
19.507144
 21
121.018400
 31
0.0
  0
LINE
  5
21c
100
AcDbEntity
  8
text
 62
7
100
AcDbLine
 10
19.507144
 20
121.018400
 30
0.0
 11
19.239032
 21
121.018400
 31
0.0
  0
LINE
  5
21d
100
AcDbEntity
  8
text
 62
7
100
AcDbLine
 10
19.239032
 20
121.018400
 30
0.0
 11
18.970921
 21
121.107300
 31
0.0
  0
LINE
  5
21e
100
AcDbEntity
  8
text
 62
7
100
AcDbLine
 10
18.970921
 20
121.107300
 30
0.0
 11
18.883431
 21
121.285101
 31
0.0
  0
LINE
  5
21f
100
AcDbEntity
  8
logo
 62
7
100
AcDbLine
 10
12.593101
 20
7.818070
 30
0.0
 11
12.814074
 21
7.707586
 31
0.0
  0
LINE
  5
220
100
AcDbEntity
  8
logo
 62
7
100
AcDbLine
 10
12.814074
 20
7.707586
 30
0.0
 11
12.887731
 21
7.597101
 31
0.0
  0
LINE
  5
221
100
AcDbEntity
  8
logo
 62
7
100
AcDbLine
 10
12.887731
 20
7.597101
 30
0.0
 11
12.961389
 21
7.376133
 31
0.0
  0
LINE
  5
222
100
AcDbEntity
  8
logo
 62
7
100
AcDbLine
 10
12.961389
 20
7.376133
 30
0.0
 11
12.961389
 21
7.044680
 31
0.0
  0
LINE
  5
223
100
AcDbEntity
  8
logo
 62
7
100
AcDbLine
 10
12.961389
 20
7.044680
 30
0.0
 11
12.887731
 21
6.823711
 31
0.0
  0
LINE
  5
224
100
AcDbEntity
  8
logo
 62
7
100
AcDbLine
 10
12.887731
 20
6.823711
 30
0.0
 11
12.814074
 21
6.713228
 31
0.0
  0
LINE
  5
225
100
AcDbEntity
  8
logo
 62
7
100
AcDbLine
 10
12.814074
 20
6.713228
 30
0.0
 11
12.666758
 21
6.602743
 31
0.0
  0
LINE
  5
226
100
AcDbEntity
  8
logo
 62
7
100
AcDbLine
 10
12.666758
 20
6.602743
 30
0.0
 11
12.077513
 21
6.602743
 31
0.0
  0
LINE
  5
227
100
AcDbEntity
  8
logo
 62
7
100
AcDbLine
 10
12.077513
 20
6.602743
 30
0.0
 11
12.077513
 21
8.922913
 31
0.0
  0
LINE
  5
228
100
AcDbEntity
  8
logo
 62
7
100
AcDbLine
 10
12.077513
 20
8.922913
 30
0.0
 11
12.593101
 21
8.922913
 31
0.0
  0
LINE
  5
229
100
AcDbEntity
  8
logo
 62
7
100
AcDbLine
 10
12.593101
 20
8.922913
 30
0.0
 11
12.740416
 21
8.812428
 31
0.0
  0
LINE
  5
22a
100
AcDbEntity
  8
logo
 62
7
100
AcDbLine
 10
12.740416
 20
8.812428
 30
0.0
 11
12.814074
 21
8.701945
 31
0.0
  0
LINE
  5
22b
100
AcDbEntity
  8
logo
 62
7
100
AcDbLine
 10
12.814074
 20
8.701945
 30
0.0
 11
12.887731
 21
8.480976
 31
0.0
  0
LINE
  5
22c
100
AcDbEntity
  8
logo
 62
7
100
AcDbLine
 10
12.887731
 20
8.480976
 30
0.0
 11
12.887731
 21
8.260008
 31
0.0
  0
LINE
  5
22d
100
AcDbEntity
  8
logo
 62
7
100
AcDbLine
 10
12.887731
 20
8.260008
 30
0.0
 11
12.814074
 21
8.039038
 31
0.0
  0
LINE
  5
22e
100
AcDbEntity
  8
logo
 62
7
100
AcDbLine
 10
12.814074
 20
8.039038
 30
0.0
 11
12.740416
 21
7.928555
 31
0.0
  0
LINE
  5
22f
100
AcDbEntity
  8
logo
 62
7
100
AcDbLine
 10
12.740416
 20
7.928555
 30
0.0
 11
12.593101
 21
7.818070
 31
0.0
  0
LINE
  5
230
100
AcDbEntity
  8
logo
 62
7
100
AcDbLine
 10
12.593101
 20
7.818070
 30
0.0
 11
12.077513
 21
7.818070
 31
0.0
  0
LINE
  5
231
100
AcDbEntity
  8
logo
 62
7
100
AcDbLine
 10
14.360854
 20
6.602743
 30
0.0
 11
13.624293
 21
6.602743
 31
0.0
  0
LINE
  5
232
100
AcDbEntity
  8
logo
 62
7
100
AcDbLine
 10
13.624293
 20
6.602743
 30
0.0
 11
13.624293
 21
8.922913
 31
0.0
  0
LINE
  5
233
100
AcDbEntity
  8
logo
 62
7
100
AcDbLine
 10
14.876457
 20
7.818070
 30
0.0
 11
15.392045
 21
7.818070
 31
0.0
  0
LINE
  5
234
100
AcDbEntity
  8
logo
 62
7
100
AcDbLine
 10
15.613018
 20
6.602743
 30
0.0
 11
14.876457
 21
6.602743
 31
0.0
  0
LINE
  5
235
100
AcDbEntity
  8
logo
 62
7
100
AcDbLine
 10
14.876457
 20
6.602743
 30
0.0
 11
14.876457
 21
8.922913
 31
0.0
  0
LINE
  5
236
100
AcDbEntity
  8
logo
 62
7
100
AcDbLine
 10
14.876457
 20
8.922913
 30
0.0
 11
15.613018
 21
8.922913
 31
0.0
  0
LINE
  5
237
100
AcDbEntity
  8
logo
 62
7
100
AcDbLine
 10
16.275922
 20
7.818070
 30
0.0
 11
16.791510
 21
7.818070
 31
0.0
  0
LINE
  5
238
100
AcDbEntity
  8
logo
 62
7
100
AcDbLine
 10
17.012483
 20
6.602743
 30
0.0
 11
16.275922
 21
6.602743
 31
0.0
  0
LINE
  5
239
100
AcDbEntity
  8
logo
 62
7
100
AcDbLine
 10
16.275922
 20
6.602743
 30
0.0
 11
16.275922
 21
8.922913
 31
0.0
  0
LINE
  5
23a
100
AcDbEntity
  8
logo
 62
7
100
AcDbLine
 10
16.275922
 20
8.922913
 30
0.0
 11
17.012483
 21
8.922913
 31
0.0
  0
LINE
  5
23b
100
AcDbEntity
  8
logo
 62
7
100
AcDbLine
 10
17.675387
 20
6.602743
 30
0.0
 11
17.675387
 21
8.922913
 31
0.0
  0
LINE
  5
23c
100
AcDbEntity
  8
logo
 62
7
100
AcDbLine
 10
17.675387
 20
8.922913
 30
0.0
 11
18.264633
 21
8.922913
 31
0.0
  0
LINE
  5
23d
100
AcDbEntity
  8
logo
 62
7
100
AcDbLine
 10
18.264633
 20
8.922913
 30
0.0
 11
18.411948
 21
8.812428
 31
0.0
  0
LINE
  5
23e
100
AcDbEntity
  8
logo
 62
7
100
AcDbLine
 10
18.411948
 20
8.812428
 30
0.0
 11
18.485605
 21
8.701945
 31
0.0
  0
LINE
  5
23f
100
AcDbEntity
  8
logo
 62
7
100
AcDbLine
 10
18.485605
 20
8.701945
 30
0.0
 11
18.559263
 21
8.480976
 31
0.0
  0
LINE
  5
240
100
AcDbEntity
  8
logo
 62
7
100
AcDbLine
 10
18.559263
 20
8.480976
 30
0.0
 11
18.559263
 21
8.149523
 31
0.0
  0
LINE
  5
241
100
AcDbEntity
  8
logo
 62
7
100
AcDbLine
 10
18.559263
 20
8.149523
 30
0.0
 11
18.485605
 21
7.928555
 31
0.0
  0
LINE
  5
242
100
AcDbEntity
  8
logo
 62
7
100
AcDbLine
 10
18.485605
 20
7.928555
 30
0.0
 11
18.411948
 21
7.818070
 31
0.0
  0
LINE
  5
243
100
AcDbEntity
  8
logo
 62
7
100
AcDbLine
 10
18.411948
 20
7.818070
 30
0.0
 11
18.264633
 21
7.707586
 31
0.0
  0
LINE
  5
244
100
AcDbEntity
  8
logo
 62
7
100
AcDbLine
 10
18.264633
 20
7.707586
 30
0.0
 11
17.675387
 21
7.707586
 31
0.0
  0
LINE
  5
245
100
AcDbEntity
  8
logo
 62
7
100
AcDbLine
 10
12.372143
 20
4.879188
 30
0.0
 11
12.593101
 21
4.768704
 31
0.0
  0
LINE
  5
246
100
AcDbEntity
  8
logo
 62
7
100
AcDbLine
 10
12.593101
 20
4.768704
 30
0.0
 11
12.666758
 21
4.658219
 31
0.0
  0
LINE
  5
247
100
AcDbEntity
  8
logo
 62
7
100
AcDbLine
 10
12.666758
 20
4.658219
 30
0.0
 11
12.740416
 21
4.437251
 31
0.0
  0
LINE
  5
248
100
AcDbEntity
  8
logo
 62
7
100
AcDbLine
 10
12.740416
 20
4.437251
 30
0.0
 11
12.740416
 21
4.105798
 31
0.0
  0
LINE
  5
249
100
AcDbEntity
  8
logo
 62
7
100
AcDbLine
 10
12.740416
 20
4.105798
 30
0.0
 11
12.666758
 21
3.884829
 31
0.0
  0
LINE
  5
24a
100
AcDbEntity
  8
logo
 62
7
100
AcDbLine
 10
12.666758
 20
3.884829
 30
0.0
 11
12.593101
 21
3.774346
 31
0.0
  0
LINE
  5
24b
100
AcDbEntity
  8
logo
 62
7
100
AcDbLine
 10
12.593101
 20
3.774346
 30
0.0
 11
12.445801
 21
3.663861
 31
0.0
  0
LINE
  5
24c
100
AcDbEntity
  8
logo
 62
7
100
AcDbLine
 10
12.445801
 20
3.663861
 30
0.0
 11
11.856540
 21
3.663861
 31
0.0
  0
LINE
  5
24d
100
AcDbEntity
  8
logo
 62
7
100
AcDbLine
 10
11.856540
 20
3.663861
 30
0.0
 11
11.856540
 21
5.984031
 31
0.0
  0
LINE
  5
24e
100
AcDbEntity
  8
logo
 62
7
100
AcDbLine
 10
11.856540
 20
5.984031
 30
0.0
 11
12.372143
 21
5.984031
 31
0.0
  0
LINE
  5
24f
100
AcDbEntity
  8
logo
 62
7
100
AcDbLine
 10
12.372143
 20
5.984031
 30
0.0
 11
12.519458
 21
5.873546
 31
0.0
  0
LINE
  5
250
100
AcDbEntity
  8
logo
 62
7
100
AcDbLine
 10
12.519458
 20
5.873546
 30
0.0
 11
12.593101
 21
5.763063
 31
0.0
  0
LINE
  5
251
100
AcDbEntity
  8
logo
 62
7
100
AcDbLine
 10
12.593101
 20
5.763063
 30
0.0
 11
12.666758
 21
5.542094
 31
0.0
  0
LINE
  5
252
100
AcDbEntity
  8
logo
 62
7
100
AcDbLine
 10
12.666758
 20
5.542094
 30
0.0
 11
12.666758
 21
5.321126
 31
0.0
  0
LINE
  5
253
100
AcDbEntity
  8
logo
 62
7
100
AcDbLine
 10
12.666758
 20
5.321126
 30
0.0
 11
12.593101
 21
5.100156
 31
0.0
  0
LINE
  5
254
100
AcDbEntity
  8
logo
 62
7
100
AcDbLine
 10
12.593101
 20
5.100156
 30
0.0
 11
12.519458
 21
4.989673
 31
0.0
  0
LINE
  5
255
100
AcDbEntity
  8
logo
 62
7
100
AcDbLine
 10
12.519458
 20
4.989673
 30
0.0
 11
12.372143
 21
4.879188
 31
0.0
  0
LINE
  5
256
100
AcDbEntity
  8
logo
 62
7
100
AcDbLine
 10
12.372143
 20
4.879188
 30
0.0
 11
11.856540
 21
4.879188
 31
0.0
  0
LINE
  5
257
100
AcDbEntity
  8
logo
 62
7
100
AcDbLine
 10
14.139881
 20
3.663861
 30
0.0
 11
13.403320
 21
3.663861
 31
0.0
  0
LINE
  5
258
100
AcDbEntity
  8
logo
 62
7
100
AcDbLine
 10
13.403320
 20
3.663861
 30
0.0
 11
13.403320
 21
5.984031
 31
0.0
  0
LINE
  5
259
100
AcDbEntity
  8
logo
 62
7
100
AcDbLine
 10
14.950100
 20
5.984031
 30
0.0
 11
15.244730
 21
5.984031
 31
0.0
  0
LINE
  5
25a
100
AcDbEntity
  8
logo
 62
7
100
AcDbLine
 10
15.244730
 20
5.984031
 30
0.0
 11
15.392045
 21
5.873546
 31
0.0
  0
LINE
  5
25b
100
AcDbEntity
  8
logo
 62
7
100
AcDbLine
 10
15.392045
 20
5.873546
 30
0.0
 11
15.539361
 21
5.652578
 31
0.0
  0
LINE
  5
25c
100
AcDbEntity
  8
logo
 62
7
100
AcDbLine
 10
15.539361
 20
5.652578
 30
0.0
 11
15.613018
 21
5.210641
 31
0.0
  0
LINE
  5
25d
100
AcDbEntity
  8
logo
 62
7
100
AcDbLine
 10
15.613018
 20
5.210641
 30
0.0
 11
15.613018
 21
4.437251
 31
0.0
  0
LINE
  5
25e
100
AcDbEntity
  8
logo
 62
7
100
AcDbLine
 10
15.613018
 20
4.437251
 30
0.0
 11
15.539361
 21
3.995314
 31
0.0
  0
LINE
  5
25f
100
AcDbEntity
  8
logo
 62
7
100
AcDbLine
 10
15.539361
 20
3.995314
 30
0.0
 11
15.392045
 21
3.774346
 31
0.0
  0
LINE
  5
260
100
AcDbEntity
  8
logo
 62
7
100
AcDbLine
 10
15.392045
 20
3.774346
 30
0.0
 11
15.244730
 21
3.663861
 31
0.0
  0
LINE
  5
261
100
AcDbEntity
  8
logo
 62
7
100
AcDbLine
 10
15.244730
 20
3.663861
 30
0.0
 11
14.950100
 21
3.663861
 31
0.0
  0
LINE
  5
262
100
AcDbEntity
  8
logo
 62
7
100
AcDbLine
 10
14.950100
 20
3.663861
 30
0.0
 11
14.802800
 21
3.774346
 31
0.0
  0
LINE
  5
263
100
AcDbEntity
  8
logo
 62
7
100
AcDbLine
 10
14.802800
 20
3.774346
 30
0.0
 11
14.655484
 21
3.995314
 31
0.0
  0
LINE
  5
264
100
AcDbEntity
  8
logo
 62
7
100
AcDbLine
 10
14.655484
 20
3.995314
 30
0.0
 11
14.581827
 21
4.437251
 31
0.0
  0
LINE
  5
265
100
AcDbEntity
  8
logo
 62
7
100
AcDbLine
 10
14.581827
 20
4.437251
 30
0.0
 11
14.581827
 21
5.210641
 31
0.0
  0
LINE
  5
266
100
AcDbEntity
  8
logo
 62
7
100
AcDbLine
 10
14.581827
 20
5.210641
 30
0.0
 11
14.655484
 21
5.652578
 31
0.0
  0
LINE
  5
267
100
AcDbEntity
  8
logo
 62
7
100
AcDbLine
 10
14.655484
 20
5.652578
 30
0.0
 11
14.802800
 21
5.873546
 31
0.0
  0
LINE
  5
268
100
AcDbEntity
  8
logo
 62
7
100
AcDbLine
 10
14.802800
 20
5.873546
 30
0.0
 11
14.950100
 21
5.984031
 31
0.0
  0
LINE
  5
269
100
AcDbEntity
  8
logo
 62
7
100
AcDbLine
 10
16.570537
 20
5.984031
 30
0.0
 11
16.865168
 21
5.984031
 31
0.0
  0
LINE
  5
26a
100
AcDbEntity
  8
logo
 62
7
100
AcDbLine
 10
16.865168
 20
5.984031
 30
0.0
 11
17.012483
 21
5.873546
 31
0.0
  0
LINE
  5
26b
100
AcDbEntity
  8
logo
 62
7
100
AcDbLine
 10
17.012483
 20
5.873546
 30
0.0
 11
17.159798
 21
5.652578
 31
0.0
  0
LINE
  5
26c
100
AcDbEntity
  8
logo
 62
7
100
AcDbLine
 10
17.159798
 20
5.652578
 30
0.0
 11
17.233441
 21
5.210641
 31
0.0
  0
LINE
  5
26d
100
AcDbEntity
  8
logo
 62
7
100
AcDbLine
 10
17.233441
 20
5.210641
 30
0.0
 11
17.233441
 21
4.437251
 31
0.0
  0
LINE
  5
26e
100
AcDbEntity
  8
logo
 62
7
100
AcDbLine
 10
17.233441
 20
4.437251
 30
0.0
 11
17.159798
 21
3.995314
 31
0.0
  0
LINE
  5
26f
100
AcDbEntity
  8
logo
 62
7
100
AcDbLine
 10
17.159798
 20
3.995314
 30
0.0
 11
17.012483
 21
3.774346
 31
0.0
  0
LINE
  5
270
100
AcDbEntity
  8
logo
 62
7
100
AcDbLine
 10
17.012483
 20
3.774346
 30
0.0
 11
16.865168
 21
3.663861
 31
0.0
  0
LINE
  5
271
100
AcDbEntity
  8
logo
 62
7
100
AcDbLine
 10
16.865168
 20
3.663861
 30
0.0
 11
16.570537
 21
3.663861
 31
0.0
  0
LINE
  5
272
100
AcDbEntity
  8
logo
 62
7
100
AcDbLine
 10
16.570537
 20
3.663861
 30
0.0
 11
16.423237
 21
3.774346
 31
0.0
  0
LINE
  5
273
100
AcDbEntity
  8
logo
 62
7
100
AcDbLine
 10
16.423237
 20
3.774346
 30
0.0
 11
16.275922
 21
3.995314
 31
0.0
  0
LINE
  5
274
100
AcDbEntity
  8
logo
 62
7
100
AcDbLine
 10
16.275922
 20
3.995314
 30
0.0
 11
16.202264
 21
4.437251
 31
0.0
  0
LINE
  5
275
100
AcDbEntity
  8
logo
 62
7
100
AcDbLine
 10
16.202264
 20
4.437251
 30
0.0
 11
16.202264
 21
5.210641
 31
0.0
  0
LINE
  5
276
100
AcDbEntity
  8
logo
 62
7
100
AcDbLine
 10
16.202264
 20
5.210641
 30
0.0
 11
16.275922
 21
5.652578
 31
0.0
  0
LINE
  5
277
100
AcDbEntity
  8
logo
 62
7
100
AcDbLine
 10
16.275922
 20
5.652578
 30
0.0
 11
16.423237
 21
5.873546
 31
0.0
  0
LINE
  5
278
100
AcDbEntity
  8
logo
 62
7
100
AcDbLine
 10
16.423237
 20
5.873546
 30
0.0
 11
16.570537
 21
5.984031
 31
0.0
  0
LINE
  5
279
100
AcDbEntity
  8
logo
 62
7
100
AcDbLine
 10
17.896360
 20
3.663861
 30
0.0
 11
17.896360
 21
5.984031
 31
0.0
  0
LINE
  5
27a
100
AcDbEntity
  8
logo
 62
7
100
AcDbLine
 10
17.896360
 20
5.984031
 30
0.0
 11
18.485605
 21
5.984031
 31
0.0
  0
LINE
  5
27b
100
AcDbEntity
  8
logo
 62
7
100
AcDbLine
 10
18.485605
 20
5.984031
 30
0.0
 11
18.632921
 21
5.873546
 31
0.0
  0
LINE
  5
27c
100
AcDbEntity
  8
logo
 62
7
100
AcDbLine
 10
18.632921
 20
5.873546
 30
0.0
 11
18.706578
 21
5.763063
 31
0.0
  0
LINE
  5
27d
100
AcDbEntity
  8
logo
 62
7
100
AcDbLine
 10
18.706578
 20
5.763063
 30
0.0
 11
18.780221
 21
5.542094
 31
0.0
  0
LINE
  5
27e
100
AcDbEntity
  8
logo
 62
7
100
AcDbLine
 10
18.780221
 20
5.542094
 30
0.0
 11
18.780221
 21
5.210641
 31
0.0
  0
LINE
  5
27f
100
AcDbEntity
  8
logo
 62
7
100
AcDbLine
 10
18.780221
 20
5.210641
 30
0.0
 11
18.706578
 21
4.989673
 31
0.0
  0
LINE
  5
280
100
AcDbEntity
  8
logo
 62
7
100
AcDbLine
 10
18.706578
 20
4.989673
 30
0.0
 11
18.632921
 21
4.879188
 31
0.0
  0
LINE
  5
281
100
AcDbEntity
  8
logo
 62
7
100
AcDbLine
 10
18.632921
 20
4.879188
 30
0.0
 11
18.485605
 21
4.768704
 31
0.0
  0
LINE
  5
282
100
AcDbEntity
  8
logo
 62
7
100
AcDbLine
 10
18.485605
 20
4.768704
 30
0.0
 11
17.896360
 21
4.768704
 31
0.0
  0
LINE
  5
283
100
AcDbEntity
  8
logo
 62
7
100
AcDbLine
 10
10.781512
 20
9.148373
 30
0.0
 11
11.298198
 21
9.480889
 31
0.0
  0
LINE
  5
284
100
AcDbEntity
  8
logo
 62
7
100
AcDbLine
 10
10.367903
 20
4.169941
 30
0.0
 11
10.331337
 21
4.687528
 31
0.0
  0
LINE
  5
285
100
AcDbEntity
  8
logo
 62
7
100
AcDbLine
 10
10.327377
 20
3.050532
 30
0.0
 11
10.623864
 21
3.688148
 31
0.0
  0
LINE
  5
286
100
AcDbEntity
  8
logo
 62
7
100
AcDbLine
 10
20.035726
 20
4.017377
 30
0.0
 11
19.703200
 21
3.500697
 31
0.0
  0
LINE
  5
287
100
AcDbEntity
  8
logo
 62
7
100
AcDbLine
 10
10.331337
 20
7.961543
 30
0.0
 11
10.449001
 21
8.631693
 31
0.0
  0
LINE
  5
288
100
AcDbEntity
  8
logo
 62
7
100
AcDbLine
 10
19.703200
 20
9.148373
 30
0.0
 11
20.035726
 21
8.631693
 31
0.0
  0
LINE
  5
289
100
AcDbEntity
  8
logo
 62
7
100
AcDbLine
 10
19.186529
 20
9.480892
 30
0.0
 11
19.703200
 21
9.148373
 31
0.0
  0
LINE
  5
28a
100
AcDbEntity
  8
logo
 62
7
100
AcDbLine
 10
20.153390
 20
7.961546
 30
0.0
 11
20.153375
 21
4.687528
 31
0.0
  0
LINE
  5
28b
100
AcDbEntity
  8
logo
 62
7
100
AcDbLine
 10
10.449001
 20
8.631693
 30
0.0
 11
10.781512
 21
9.148373
 31
0.0
  0
LINE
  5
28c
100
AcDbEntity
  8
logo
 62
7
100
AcDbLine
 10
11.456851
 20
3.085368
 30
0.0
 11
10.988811
 21
3.329316
 31
0.0
  0
LINE
  5
28d
100
AcDbEntity
  8
logo
 62
7
100
AcDbLine
 10
10.988811
 20
3.329316
 30
0.0
 11
10.327377
 21
3.050532
 31
0.0
  0
LINE
  5
28e
100
AcDbEntity
  8
logo
 62
7
100
AcDbLine
 10
11.968341
 20
9.598549
 30
0.0
 11
18.516371
 21
9.598554
 31
0.0
  0
LINE
  5
28f
100
AcDbEntity
  8
logo
 62
7
100
AcDbLine
 10
18.516371
 20
9.598554
 30
0.0
 11
19.186529
 21
9.480892
 31
0.0
  0
LINE
  5
290
100
AcDbEntity
  8
logo
 62
7
100
AcDbLine
 10
19.186529
 20
3.168180
 30
0.0
 11
18.516371
 21
3.050519
 31
0.0
  0
LINE
  5
291
100
AcDbEntity
  8
logo
 62
7
100
AcDbLine
 10
20.153375
 20
4.687528
 30
0.0
 11
20.035726
 21
4.017377
 31
0.0
  0
LINE
  5
292
100
AcDbEntity
  8
logo
 62
7
100
AcDbLine
 10
18.516371
 20
3.050519
 30
0.0
 11
11.968341
 21
3.050519
 31
0.0
  0
LINE
  5
293
100
AcDbEntity
  8
logo
 62
7
100
AcDbLine
 10
11.968341
 20
3.050519
 30
0.0
 11
11.456851
 21
3.085368
 31
0.0
  0
LINE
  5
294
100
AcDbEntity
  8
logo
 62
7
100
AcDbLine
 10
19.703200
 20
3.500697
 30
0.0
 11
19.186529
 21
3.168180
 31
0.0
  0
LINE
  5
295
100
AcDbEntity
  8
logo
 62
7
100
AcDbLine
 10
10.623864
 20
3.688148
 30
0.0
 11
10.367903
 21
4.169941
 31
0.0
  0
LINE
  5
296
100
AcDbEntity
  8
logo
 62
7
100
AcDbLine
 10
11.298198
 20
9.480889
 30
0.0
 11
11.968341
 21
9.598549
 31
0.0
  0
LINE
  5
297
100
AcDbEntity
  8
logo
 62
7
100
AcDbLine
 10
20.035726
 20
8.631693
 30
0.0
 11
20.153390
 21
7.961546
 31
0.0
  0
LINE
  5
298
100
AcDbEntity
  8
logo
 62
7
100
AcDbLine
 10
10.331337
 20
4.687528
 30
0.0
 11
10.331337
 21
7.961543
 31
0.0
  0
LINE
  5
299
100
AcDbEntity
  8
design_2
 62
7
100
AcDbLine
 10
22.155781
 20
28.687761
 30
0.0
 11
23.573911
 21
28.687577
 31
0.0
  0
LINE
  5
29a
100
AcDbEntity
  8
design_2
 62
7
100
AcDbLine
 10
23.573911
 20
28.687577
 30
0.0
 11
22.864687
 21
27.459533
 31
0.0
  0
LINE
  5
29b
100
AcDbEntity
  8
design_2
 62
7
100
AcDbLine
 10
22.864687
 20
27.459533
 30
0.0
 11
22.155781
 21
28.687761
 31
0.0
  0
SPLINE
  5
29c
100
AcDbEntity
  8
design_2
 62
7
100
AcDbSpline
 70
8
 71
3
 72
8
 73
4
 74
0
 40
0
 40
0
 40
0
 40
0
 40
1
 40
1
 40
1
 40
1
 10
20.486751
 20
35.269178
 30
0.0
 10
19.914755
 20
35.841174
 30
0.0
 10
19.054519
 20
36.012286
 30
0.0
 10
18.307170
 20
35.702724
 30
0.0
  0
SPLINE
  5
29d
100
AcDbEntity
  8
design_2
 62
7
100
AcDbSpline
 70
8
 71
3
 72
8
 73
4
 74
0
 40
0
 40
0
 40
0
 40
0
 40
1
 40
1
 40
1
 40
1
 10
18.307170
 20
35.702724
 30
0.0
 10
17.559821
 20
35.393162
 30
0.0
 10
17.072537
 20
34.663889
 30
0.0
 10
17.072537
 20
33.854964
 30
0.0
  0
SPLINE
  5
29e
100
AcDbEntity
  8
design_2
 62
7
100
AcDbSpline
 70
8
 71
3
 72
8
 73
4
 74
0
 40
0
 40
0
 40
0
 40
0
 40
1
 40
1
 40
1
 40
1
 10
17.072537
 20
33.854964
 30
0.0
 10
17.072537
 20
33.046039
 30
0.0
 10
17.559821
 20
32.316767
 30
0.0
 10
18.307170
 20
32.007205
 30
0.0
  0
SPLINE
  5
29f
100
AcDbEntity
  8
design_2
 62
7
100
AcDbSpline
 70
8
 71
3
 72
8
 73
4
 74
0
 40
0
 40
0
 40
0
 40
0
 40
1
 40
1
 40
1
 40
1
 10
18.307170
 20
32.007205
 30
0.0
 10
19.054519
 20
31.697642
 30
0.0
 10
19.914755
 20
31.868754
 30
0.0
 10
20.486751
 20
32.440750
 30
0.0
  0
SPLINE
  5
2a0
100
AcDbEntity
  8
design_2
 62
7
100
AcDbSpline
 70
8
 71
3
 72
8
 73
4
 74
0
 40
0
 40
0
 40
0
 40
0
 40
1
 40
1
 40
1
 40
1
 10
20.486751
 20
32.440750
 30
0.0
 10
20.861824
 20
32.815823
 30
0.0
 10
21.072538
 20
33.324531
 30
0.0
 10
21.072538
 20
33.854964
 30
0.0
  0
SPLINE
  5
2a1
100
AcDbEntity
  8
design_2
 62
7
100
AcDbSpline
 70
8
 71
3
 72
8
 73
4
 74
0
 40
0
 40
0
 40
0
 40
0
 40
1
 40
1
 40
1
 40
1
 10
21.072538
 20
33.854964
 30
0.0
 10
21.072538
 20
34.385397
 30
0.0
 10
20.861824
 20
34.894105
 30
0.0
 10
20.486751
 20
35.269178
 30
0.0
  0
LINE
  5
2a2
100
AcDbEntity
  8
design_2
 62
7
100
AcDbLine
 10
20.486751
 20
35.269178
 30
0.0
 11
20.486751
 21
35.269178
 31
0.0
  0
LINE
  5
2a3
100
AcDbEntity
  8
design_2
 62
7
100
AcDbLine
 10
20.485961
 20
35.269944
 30
0.0
 11
17.659114
 21
32.439985
 31
0.0
  0
SPLINE
  5
2a4
100
AcDbEntity
  8
design_2
 62
7
100
AcDbSpline
 70
8
 71
3
 72
8
 73
4
 74
0
 40
0
 40
0
 40
0
 40
0
 40
1
 40
1
 40
1
 40
1
 10
17.669501
 20
35.260899
 30
0.0
 10
17.733537
 20
35.196864
 30
0.0
 10
20.494824
 20
32.429637
 30
0.0
 10
20.494824
 20
32.429637
 30
0.0
  0
LINE
  5
2a5
100
AcDbEntity
  8
design_2
 62
7
100
AcDbLine
 10
17.214152
 20
34.594175
 30
0.0
 11
15.810917
 21
34.389178
 31
0.0
  0
LINE
  5
2a6
100
AcDbEntity
  8
design_2
 62
7
100
AcDbLine
 10
15.810917
 20
34.389178
 30
0.0
 11
16.335002
 21
35.706913
 31
0.0
  0
LINE
  5
2a7
100
AcDbEntity
  8
design_2
 62
7
100
AcDbLine
 10
16.335002
 20
35.706913
 30
0.0
 11
17.214152
 21
34.594175
 31
0.0
  0
LINE
  5
2a8
100
AcDbEntity
  8
design_2
 62
7
100
AcDbLine
 10
17.213973
 20
33.116157
 30
0.0
 11
16.334555
 21
32.003629
 31
0.0
  0
LINE
  5
2a9
100
AcDbEntity
  8
design_2
 62
7
100
AcDbLine
 10
16.334555
 20
32.003629
 30
0.0
 11
15.810787
 21
33.321491
 31
0.0
  0
LINE
  5
2aa
100
AcDbEntity
  8
design_2
 62
7
100
AcDbLine
 10
15.810787
 20
33.321491
 30
0.0
 11
17.213973
 21
33.116157
 31
0.0
  0
LINE
  5
2ab
100
AcDbEntity
  8
design_2
 62
7
100
AcDbLine
 10
17.787225
 20
32.322497
 30
0.0
 11
17.541104
 21
30.925888
 31
0.0
  0
LINE
  5
2ac
100
AcDbEntity
  8
design_2
 62
7
100
AcDbLine
 10
17.541104
 20
30.925888
 30
0.0
 11
16.454665
 21
31.837339
 31
0.0
  0
LINE
  5
2ad
100
AcDbEntity
  8
design_2
 62
7
100
AcDbLine
 10
16.454665
 20
31.837339
 30
0.0
 11
17.787225
 21
32.322497
 31
0.0
  0
LINE
  5
2ae
100
AcDbEntity
  8
design_2
 62
7
100
AcDbLine
 10
17.787401
 20
35.387537
 30
0.0
 11
16.454898
 21
35.872848
 31
0.0
  0
LINE
  5
2af
100
AcDbEntity
  8
design_2
 62
7
100
AcDbLine
 10
16.454898
 20
35.872848
 30
0.0
 11
17.541441
 21
36.784174
 31
0.0
  0
LINE
  5
2b0
100
AcDbEntity
  8
design_2
 62
7
100
AcDbLine
 10
17.541441
 20
36.784174
 30
0.0
 11
17.787401
 21
35.387537
 31
0.0
  0
LINE
  5
2b1
100
AcDbEntity
  8
design_2
 62
7
100
AcDbLine
 10
21.072543
 20
33.852793
 30
0.0
 11
22.864226
 21
33.852747
 31
0.0
  0
LINE
  5
2b2
100
AcDbEntity
  8
design_2
 62
7
100
AcDbLine
 10
22.864226
 20
33.852747
 30
0.0
 11
22.882306
 21
28.702291
 31
0.0
  0
LINE
  5
2b3
100
AcDbEntity
  8
design_2
 62
7
100
AcDbLine
 10
9.529426
 20
30.058560
 30
0.0
 11
16.072847
 21
32.662118
 31
0.0
  0
LINE
  5
2b4
100
AcDbEntity
  8
design_2
 62
7
100
AcDbLine
 10
16.073135
 20
35.048491
 30
0.0
 11
9.529143
 21
37.654083
 31
0.0
  0
LINE
  5
2b5
100
AcDbEntity
  8
design_2
 62
7
100
AcDbLine
 10
16.998926
 20
36.329151
 30
0.0
 11
8.601299
 21
46.357761
 31
0.0
  0
LINE
  5
2b6
100
AcDbEntity
  8
design_2
 62
7
100
AcDbLine
 10
8.601582
 20
21.355360
 30
0.0
 11
16.998642
 21
31.380979
 31
0.0
  0
ENDSEC
  0
SECTION
  2
OBJECTS
  0
DICTIONARY
  5
C
330
0
100
AcDbDictionary
  3
ACAD_GROUP
350
D
  3
ACAD_MLINESTYLE
350
17
  0
DICTIONARY
  5
D
330
C
100
AcDbDictionary
  0
DICTIONARY
  5
1A
330
C
100
AcDbDictionary
  0
DICTIONARY
  5
17
330
C
100
AcDbDictionary
  3
STANDARD
350
18
  0
DICTIONARY
  5
19
330
C
100
AcDbDictionary
  0
ENDSEC
  0
EOF
